<svg aria-hidden="true" style="width:0;height:0;position:absolute;overflow:hidden" xmlns="http://www.w3.org/2000/svg"><defs><symbol id="icon-arrow" viewBox="0 0 427 32"><path d="m0 16 26.667 15.396V.604L0 16zm426.667-2.667H24v5.333h402.667v-5.333z"/></symbol><symbol id="icon-catalogue-basket" viewBox="0 0 32 32"><path d="M.281.887C.075 1 0 1.137 0 1.406c0 .188.037.294.138.394.138.125.212.131 2.144.15 1.7.025 2.044.044 2.281.131.644.25 1.162.806 1.344 1.45.05.169.681 4.069 1.406 8.656s1.35 8.444 1.387 8.563a3.41 3.41 0 0 0 2.206 2.206l.438.138h8.444c8.363 0 8.45 0 8.588-.125a.888.888 0 0 0 .194-.275c.081-.2-.038-.544-.212-.65-.106-.056-2.019-.081-8.606-.106l-8.469-.031-.344-.181c-.45-.231-.9-.712-1.056-1.125-.088-.244-.569-2.919-.569-3.181 0-.025 3.844-.05 8.55-.056l8.544-.019.462-.169c.775-.281 1.4-.788 1.788-1.45.231-.394 3.344-9.375 3.344-9.65 0-.244-.081-.412-.231-.487-.063-.031-5.569-.069-12.231-.088L7.415 5.47l-.144-.906c-.075-.5-.169-1.044-.206-1.212-.25-1.156-1.3-2.194-2.481-2.444C4.053.795.484.777.284.889zm30.344 5.788c0 .106-2.806 8.137-2.931 8.375-.194.375-.587.75-1 .944l-.35.162-17.219.031-.031-.137c-.05-.219-1.469-9.231-1.469-9.338 0-.075 1.6-.088 11.5-.088 6.325 0 11.5.019 11.5.05zM11.794 25.094c-1.506.412-2.494 1.931-2.237 3.45.262 1.531 1.494 2.581 3.031 2.581.887 0 1.581-.281 2.2-.9 1.656-1.656.881-4.537-1.381-5.131-.444-.113-1.2-.113-1.613 0zm1.637 1.25c.688.344 1.081.969 1.081 1.725.006.381-.025.494-.206.856-.894 1.75-3.494 1.212-3.606-.75-.031-.556.106-.956.469-1.363.606-.675 1.494-.863 2.263-.469zM23.069 25.1c-.512.137-.938.387-1.363.813-1.644 1.656-.913 4.438 1.35 5.113.481.144 1.269.131 1.775-.025.481-.15 1.075-.531 1.394-.894.319-.369.631-1.056.712-1.569.238-1.531-.744-3.056-2.225-3.438-.475-.125-1.194-.125-1.644 0zm1.606 1.213c.425.181.9.7 1.044 1.131.144.425.106 1.05-.081 1.438a1.993 1.993 0 0 1-1.581 1.1c-1.425.131-2.512-1.381-1.919-2.675.25-.55.756-.975 1.331-1.125.3-.081.856-.019 1.206.131z"/></symbol><symbol id="icon-choose-delivery-icon" viewBox="0 0 32 32"><path d="M21.675.45C20.925.9 20 2.575 20 3.45c0 .5-.125.55-1.325.55-4.35 0-9.15 3.025-11.1 7-1 2.025-1.3 3.4-1.325 5.675v1.8l-6.125.15L.05 20.05C-.025 21.375.025 21.5.5 21.5c.4 0 .5-.15.5-.875v-.875h2.975l.075 2.425.075 2.45h5.25l.075-2.45.075-2.425h2.725V31H1v-4c0-3.85-.025-4-.5-4-.5 0-.5.125-.45 4.425l.075 4.45h13.25l.075-1.6c.075-1.35.125-1.55.5-1.45 4.125 1.3 7.725 1.225 10.725-.225.625-.325.95-.65.95-.975 0-.6-.2-.575-2.5.225-2 .7-4.325 1-4.875.675-.275-.2-.1-.5.925-1.6 1.075-1.125 1.3-1.55 1.45-2.575.275-2.075.375-2.475.9-3.35l.525-.85.325.775c.425 1.025.75 1.175 3.85 1.8 1.45.3 2.65.575 2.7.625.05.025-.375.6-.95 1.25-1 1.125-1.15 1.9-.375 1.9.5 0 2.325-2.125 3.025-3.5C31.6 21.075 32 19.3 32 16.85c0-3.85-1.375-7.075-4.1-9.55-1.125-1.025-1.175-1.125-.925-1.85.675-1.9.1-4.1-1.275-4.95-1.05-.625-3.05-.65-4.025-.05zm2.775.825c1.8.625 2.025 2.85.575 5.725-1.225 2.425-1.35 2.5-2.075 1.2-.85-1.45-1.7-3.8-1.7-4.675 0-.8.8-1.975 1.6-2.275.7-.3.7-.3 1.6.025zm-4.175 4.2c.075.075.35.65.575 1.275.5 1.275 1.825 3.525 2.25 3.8.675.45 1.2.15 2.1-1.3.5-.8 1.05-1.475 1.2-1.5.3 0 1.45 1.2 2.45 2.55l.675.9-1.2.4c-.65.2-1.65.45-2.2.55-1.7.3-2.725.825-3.325 1.75-.325.475-.7.85-.875.775-.175-.05-.35-.775-.425-1.7-.1-1.15-.275-1.825-.675-2.325-.3-.375-.625-1.1-.725-1.625C19.9 7.9 19.35 7 18.875 7S17.5 6.1 17.5 5.65c0-.55 2.275-.7 2.775-.175zm-3.775.55c0 .825.475 1.5 1.4 1.875.7.3.875.525 1 1.375.1.55.45 1.425.8 1.925.425.625.625 1.25.6 1.925-.05 3.075 1.875 4.15 3.325 1.85.35-.55.9-1.1 1.2-1.2 1.2-.475 5.025-1.275 5.175-1.1.3.325.725 1.85.9 3.2.15 1.375-.175 3.65-.8 5.275l-.4 1.025-1.525-.3c-.85-.175-2.2-.45-3-.625-1.4-.275-1.475-.35-1.925-1.4-.375-.85-.6-1.1-1.075-1.1-1.125 0-2.35 2.15-2.65 4.65-.175 1.5-.275 1.725-1.325 2.725-.65.6-1.225 1.325-1.325 1.625-.2.625-.6.625-2.15-.025L13.5 27.2v-4.05c0-2.825-.1-4.15-.3-4.35-.175-.175-1.05-.3-2.225-.3-2.575 0-2.65-.275-.825-2.675 1.025-1.35 1.125-2.8.325-4.575-.275-.625-.45-1.35-.35-1.675.175-.75 2.35-2.45 4.25-3.35 1.775-.85 2.125-.9 2.125-.2zm-6.9 6.35c.425 1.275.3 1.85-.675 3.025-.85 1.025-1.175 1.7-1.2 2.525l-.025.7-.225-.75c-.3-.975.125-3.8.825-5.4.275-.675.6-1.225.7-1.225.125 0 .375.5.6 1.125zM8.25 21.75v2h-3v-4h3v2z"/><path d="M22.425 2.45c-.95 1.05-.15 2.8 1.275 2.8.4 0 .9-.2 1.125-.45.525-.575.55-1.9.025-2.4-.525-.55-1.925-.5-2.425.05zM24.1 3.775c-.2.35-.85.275-.85-.1 0-.2.075-.425.175-.5.225-.225.85.325.675.6zM17.8 2.05c.05.325.25.575.45.575s.4-.25.45-.575c.075-.425-.05-.55-.45-.55s-.525.125-.45.55zM15.875 2c-.225.375.1.75.65.75.3 0 .475-.175.475-.5 0-.525-.825-.725-1.125-.25zM14 2.75c0 .4.125.525.575.45.3-.05.55-.25.55-.45s-.25-.4-.55-.45c-.45-.075-.575.05-.575.45zM12.35 3.125c-.1.225-.05.525.1.675.375.375 1.1.025 1-.475-.1-.575-.9-.725-1.1-.2zM10.6 4.025c-.2.35.525 1.075.875.875.475-.3.325-1.15-.2-1.15-.275 0-.575.125-.675.275zM9.15 5.15c-.1.25-.05.55.075.675.35.35 1.075 0 .975-.5-.1-.6-.85-.7-1.05-.175zM7.925 6.175c-.375.35-.175 1.075.3 1.075.65 0 .9-.425.525-.875-.35-.4-.575-.475-.825-.2zM6.6 7.875c-.1.225-.05.525.1.675.375.375 1.1.025 1-.475-.1-.575-.9-.725-1.1-.2zM5.75 9.25c-.45.275-.1 1.05.425.95.25-.05.475-.25.525-.475.1-.475-.475-.775-.95-.475zM4.85 11.125c-.175.45.075.875.525.875.375 0 .6-.475.45-.95-.15-.425-.8-.375-.975.075zM4.425 12.65c-.4.4-.175 1.1.35 1.1.375 0 .5-.125.425-.55-.075-.55-.475-.825-.775-.55zM3.925 14.65c-.4.4-.15.85.475.85.475 0 .625-.125.55-.425-.075-.475-.725-.725-1.025-.425zM3.85 16.6c-.175.475.075.9.55.9.25 0 .35-.2.3-.55-.1-.65-.65-.9-.85-.35z"/></symbol><symbol id="icon-choose-icons-trust" viewBox="0 0 32 32"><path d="m7.388.344-.5.338-.55-.05c-.306-.025-.619-.025-.7 0-.1.037-.225.225-.406.612l-.262.563-.513.231c-.731.325-.725.325-.675 1.1l.038.644-.344.494c-.194.275-.35.544-.35.606s.156.344.35.625l.35.513-.044.637c-.05.756-.069.725.662 1.069l.519.244.269.575c.2.431.306.587.406.612.081.019.4.013.706-.012l.562-.05.425.3c.494.344.688.431.838.375.062-.025.306-.181.544-.35l.438-.313.612.044c.369.025.663.012.731-.025.062-.031.231-.306.375-.613l.262-.55.575-.281.575-.275V5.97l.331-.463c.181-.256.325-.531.325-.619 0-.081-.15-.369-.344-.644l-.344-.487.038-.556c.062-.819.062-.819-.606-1.137l-.569-.269-.25-.55c-.3-.656-.35-.681-1.131-.606l-.544.05-.494-.344C8.418.151 8.13.001 8.043.001c-.081 0-.375.156-.656.344zm1.118.881.4.288 1.131-.087.225.494.225.487.506.25.506.244-.038.569-.037.563.287.4c.156.225.288.425.288.45 0 .031-.131.238-.288.463l-.294.419.037.556.044.562-.488.231-.481.231-.25.512c-.206.419-.275.506-.375.488-.069-.013-.312-.038-.537-.063l-.413-.031-.456.306-.456.313-.394-.269c-.212-.15-.438-.294-.506-.313-.063-.019-.331-.012-.6.013l-.494.05-.231-.506-.238-.506-.506-.231c-.494-.225-.506-.231-.481-.431.106-.856.112-.825-.225-1.331l-.313-.469.3-.419c.294-.412.3-.431.281-.831a5.995 5.995 0 0 0-.044-.569c-.038-.15 0-.175.469-.388l.506-.231.462-1 1.125.075.406-.281c.225-.156.438-.287.475-.287.031-.006.244.125.469.281z"/><path d="M7.588 1.75c-2.563.375-3.619 3.5-1.806 5.35a3.187 3.187 0 0 0 2.919.894c1.112-.231 2.131-1.2 2.425-2.294.113-.437.087-1.3-.056-1.769-.456-1.469-1.95-2.406-3.481-2.181zm.856.813a2.463 2.463 0 0 1 1.687 1.263c.206.375.213.419.213 1.05 0 .588-.019.694-.169 1.006A2.598 2.598 0 0 1 9 7.026c-.362.169-.469.194-.969.194-.475 0-.619-.025-.919-.169-.5-.231-.95-.669-1.194-1.169-.181-.375-.2-.456-.2-1.006.006-.525.025-.637.187-.969A2.467 2.467 0 0 1 7.53 2.588c.4-.1.506-.1.913-.025z"/><path d="m8.438 4.406-.963.963-.419-.4c-.231-.225-.469-.406-.537-.406-.225 0-.394.181-.394.419 0 .194.063.281.575.775.469.45.612.556.769.556.169 0 .35-.162 1.369-1.181 1.094-1.1 1.175-1.2 1.137-1.362-.056-.212-.2-.331-.413-.331-.119 0-.375.219-1.125.969zM23.344 1.294c-.569.094-.981.194-1.044.25-.069.056-.112.188-.112.306 0 .3.206.425.606.369.3-.044.3-.044.175.081-.181.175-17.625 15-19.719 16.75-.925.775-1 .856-1 1.05s.206.4.406.4c.2 0-.05.212 14.719-12.344 6.906-5.869 6.288-5.35 6.225-5.188a1.93 1.93 0 0 0-.081.381c-.031.219-.013.275.112.362.213.144.406.125.55-.063.069-.087.275-.606.456-1.156.312-.944.325-1.006.237-1.169-.131-.225-.35-.231-1.531-.031z"/><path d="M22.338 4.944c-.113.125-.119.269-.138 2.219l-.019 2.088h-2.056c-1.981 0-2.069.006-2.187.125s-.125.206-.125 2.75v2.625h-2.119c-2.125 0-2.125 0-2.219.138-.081.112-.1.331-.1 1.062v.925h-2.05c-1.75 0-2.069.013-2.187.1C9 17.07 9 17.07 9 19.163v2.088H6.906c-2.012 0-2.1.006-2.219.125s-.125.206-.125 3.344v3.219H2.531c-1.95 0-2.038.006-2.156.125S.25 28.27.25 29.958c0 1.5.013 1.788.1 1.906l.094.138h31.113l.094-.138c.088-.119.1-.406.1-1.906 0-1.687-.006-1.775-.125-1.894s-.206-.125-2.156-.125h-2.031V16.501c0-11.356 0-11.438-.125-11.562-.119-.119-.206-.125-2.487-.125-2.325 0-2.369 0-2.487.131zm4.287 11.837v11.156H23V5.624h3.625V16.78zM22.188 19v8.938h-3.563V10.063h3.563v8.938zm-4.376 2.75v6.188h-3.625V15.563h3.625v6.188zm-4.437 1.062v5.125H9.812v-10.25h3.563v5.125zM9 25v2.938H5.375v-5.875H9v2.938zm21.938 4.969v1.219H1.063V28.75h29.875v1.219z"/></symbol><symbol id="icon-choose-selection-icon" viewBox="0 0 32 32"><path d="M11.95 1.525c-.4.225-.45.7-.45 4.225 0 4.725.025 4.75 2.775 4.75h1.675l.3 3.175c.15 1.775.25 3.55.2 4l-.075.8-1.25-.775c-1.825-1.175-3.875-1-3.875.275 0 .25 1.4 2.05 3.125 4 1.725 1.975 3.125 3.7 3.125 3.875 0 .15-.175.475-.35.7-.275.375-.275.775-.025 2.2.175.975.375 1.825.45 1.925.175.15 8.775-1.175 9.2-1.45.2-.1.175-.75-.05-2.1-.225-1.525-.4-1.975-.775-2.075-.575-.15-.575-.85.05-2.675.325-.925.5-2.1.5-3.225 0-1.775-.575-5.9-.875-6.4-.075-.125-.6-.25-1.125-.25s-1.05-.125-1.125-.25c-.075-.15-.6-.25-1.125-.25s-1.05-.125-1.125-.25c-.075-.15-.525-.25-1-.25-.525 0-.875-.15-.975-.4-.2-.55-.225-.525.475-.7.925-.225 1.125-1.05 1.125-4.725 0-4.65.225-4.425-4.575-4.425-2.125 0-4 .125-4.225.275zm7.375.8c.375.275.425.725.375 3.675-.075 2.975-.125 3.375-.5 3.45-.325.075-.45-.075-.45-.5 0-.825-.45-1.2-1.4-1.2-.925 0-1.6.55-1.6 1.275 0 .425-.175.475-1.6.475-1.225 0-1.625-.1-1.75-.4-.075-.225-.15-1.775-.15-3.475 0-2.7.05-3.125.45-3.35.65-.375 6.1-.35 6.625.05zM18.4 12.3c.325 1.825.6 3.35.6 3.375 0 .05.175.075.4.075.35 0 .375-.225.25-1.6-.15-1.3-.125-1.6.2-1.725.5-.2.675.125 1 1.925.2 1.075.4 1.525.65 1.525.3 0 .375-.325.375-1.5 0-1.125.1-1.5.35-1.5.375 0 .625.625.9 2.175.1.625.275.95.55.95.325 0 .375-.225.275-1.25-.1-.925-.025-1.25.225-1.375.625-.225.75.05 1.1 2.175.425 2.8.375 5.075-.15 6.45-.25.625-.5 1.575-.6 2.125l-.15.975-2.5.45c-3.325.55-3.225.575-3.675-.375-.225-.425-1.6-2.175-3.05-3.85-1.475-1.675-2.7-3.15-2.7-3.25-.075-.525.95-.275 2.3.55.825.5 1.7.875 1.95.825.625-.125.75-2.8.35-7.05-.3-2.9-.3-3.5-.025-3.675.2-.1.45-.1.575.025.1.1.475 1.7.8 3.55zm7.4 14.925c.1.625.15 1.15.1 1.2-.075.1-7.05 1.325-7.45 1.325-.15 0-.4-1.025-.525-2.25-.05-.275.7-.475 3.075-.9 1.725-.3 3.45-.525 3.875-.525.675.05.75.15.925 1.15z"/><path d="M16.875 4.75 15.65 6 15 5.375c-.7-.675-1.25-.8-1.25-.3C13.75 5.45 15.275 7 15.65 7c.425 0 3.175-2.95 3-3.225-.275-.45-.475-.35-1.775.975zM22.825 3.9c-.45.2-.45 5.875-.025 6.3.45.45 5.55.4 5.925-.05.2-.225.275-1.35.225-3.3l-.075-2.975L26 3.825c-1.575-.025-3.025.025-3.175.075zM28.2 7.05l.075 2.45H23.25V7.175c0-1.3.075-2.425.175-2.525s1.2-.125 2.45-.1l2.25.075.075 2.425z"/><path d="M24.95 6.025c-.525.3-.6 1.475-.15 1.925.375.375 1.525.375 1.9 0 .475-.475.375-1.65-.175-1.95-.6-.3-1.025-.3-1.575.025zm1.05 1.1c0 .2-.1.375-.25.375-.125 0-.25-.175-.25-.375s.125-.375.25-.375c.15 0 .25.175.25.375zM3.55 7.3c-.425.425-.425 5.725 0 6.15.2.2 1.25.3 3.125.3 3.4 0 3.325.075 3.325-3.475C10 7 10 7 6.525 7c-1.75 0-2.775.1-2.975.3zM9 10.375v2.4l-4.875-.15-.075-1.975c-.05-1.1-.025-2.125.05-2.325C4.2 8.1 4.85 8 6.625 8H9v2.375z"/><path d="M5.8 9.4c-1.25.85-.05 2.775 1.325 2.15.5-.225.625-.475.625-1.175 0-.725-.125-.925-.65-1.125-.775-.3-.625-.325-1.3.15zm.975 1.175c-.325.325-.65.075-.4-.3.075-.15.275-.2.425-.125.15.1.15.25-.025.425z"/></symbol><symbol id="icon-header-icon-backet" viewBox="0 0 31 32"><path d="M.27.717C.072.831 0 .97 0 1.243c0 .19.036.298.132.399.132.127.204.133 2.058.152 1.632.025 1.962.044 2.19.133a2.246 2.246 0 0 1 1.29 1.469c.048.171.654 4.123 1.35 8.772s1.296 8.557 1.332 8.677c.306 1.045 1.122 1.906 2.118 2.236l.42.139h8.106c8.028 0 8.112 0 8.244-.127a.896.896 0 0 0 .186-.279c.078-.203-.036-.551-.204-.659-.102-.057-1.938-.082-8.262-.108l-8.13-.032-.33-.184c-.432-.234-.864-.722-1.014-1.14-.084-.247-.546-2.958-.546-3.224 0-.025 3.69-.051 8.208-.057l8.202-.019.444-.171a3.278 3.278 0 0 0 1.716-1.469c.222-.399 3.21-9.501 3.21-9.779 0-.247-.078-.418-.222-.494-.06-.032-5.346-.07-11.742-.089l-11.64-.032-.138-.918A27.667 27.667 0 0 0 6.78 3.21C6.54 2.038 5.532.987 4.398.733 3.888.619.462.6.27.714zM29.4 6.582c0 .108-4.845 6.133-4.965 6.374-.755-.156-1.403.372-1.799.568l-.808.438-.808.169-4.287.113-2.989-.72-2.425-.999c-.048-.222-3.998-5.798-3.998-5.905 0-.076.764 7.712 11.274 7.712 9.124 0 10.806-7.782 10.806-7.75zM11.322 25.248c-1.446.418-2.394 1.957-2.148 3.496.252 1.552 1.434 2.616 2.91 2.616.852 0 1.518-.285 2.112-.912 1.59-1.678.846-4.598-1.326-5.199-.426-.114-1.152-.114-1.548 0zm.804 1.2v1.922c.006.386-.808 1.309-.808 1.309-.858 1.773.916.373.808-1.615-.03-.564.46-.396.808-.808.582-.684-1.546-1.207-.808-.808zM22.146 25.255c-.492.139-.9.393-1.308.823-1.578 1.678-.876 4.496 1.296 5.18.462.146 1.218.133 1.704-.025.462-.152 1.032-.538 1.338-.906.306-.374.606-1.07.684-1.59.228-1.552-.714-3.097-2.136-3.483-.456-.127-1.146-.127-1.578 0zm.948 1.562v1.556c0 .834-1.014 1.582-1.014 2.027s1.65-.256 1.014-.199c-1.368.133 0 .16 0-2.137V26.31v.507z"/></symbol><symbol id="icon-header-icon-profile" viewBox="0 0 31 32"><path d="M30.72 31.36v-3.413c0-1.811-.809-3.547-2.249-4.827s-3.394-2-5.431-2H7.68c-2.037 0-3.99.719-5.431 2S0 26.137 0 27.947v3.413zM15.36 16c3.535 0 6.4-2.865 6.4-6.4s-2.865-6.4-6.4-6.4-6.4 2.865-6.4 6.4 2.865 6.4 6.4 6.4z"/></symbol></defs></svg>