<svg width="32" height="32" viewBox="0 0 32 32" fill="none" xmlns="http://www.w3.org/2000/svg">
<g clip-path="url(#clip0_64_147)">
<path d="M0.28125 0.887499C0.075 1 0 1.1375 0 1.40625C0 1.59375 0.0375 1.7 0.1375 1.8C0.275 1.925 0.35 1.93125 2.28125 1.95C3.98125 1.975 4.325 1.99375 4.5625 2.08125C5.20625 2.33125 5.725 2.8875 5.90625 3.53125C5.95625 3.7 6.5875 7.6 7.3125 12.1875C8.0375 16.775 8.6625 20.6312 8.7 20.75C9.01875 21.7812 9.86875 22.6312 10.9062 22.9562L11.3438 23.0938H19.7875C28.15 23.0938 28.2375 23.0938 28.375 22.9688C28.45 22.9 28.5375 22.775 28.5688 22.6937C28.65 22.4937 28.5312 22.15 28.3563 22.0437C28.25 21.9875 26.3375 21.9625 19.75 21.9375L11.2812 21.9062L10.9375 21.725C10.4875 21.4937 10.0375 21.0125 9.88125 20.6C9.79375 20.3563 9.3125 17.6813 9.3125 17.4187C9.3125 17.3937 13.1562 17.3688 17.8625 17.3625L26.4062 17.3438L26.8687 17.175C27.6438 16.8937 28.2688 16.3875 28.6562 15.725C28.8875 15.3312 32 6.35 32 6.075C32 5.83125 31.9188 5.6625 31.7688 5.5875C31.7063 5.55625 26.2 5.51875 19.5375 5.5L7.4125 5.46875L7.26875 4.5625C7.19375 4.0625 7.1 3.51875 7.0625 3.35C6.8125 2.19375 5.7625 1.15625 4.58125 0.90625C4.05 0.793749 0.48125 0.775 0.28125 0.887499ZM30.625 6.675C30.625 6.78125 27.8188 14.8125 27.6938 15.05C27.5 15.425 27.1063 15.8 26.6938 15.9938L26.3438 16.1562L17.7375 16.175L9.125 16.1875L9.09375 16.05C9.04375 15.8312 7.625 6.81875 7.625 6.7125C7.625 6.6375 9.225 6.625 19.125 6.625C25.45 6.625 30.625 6.64375 30.625 6.675Z" fill="#1D2618"/>
<path d="M11.7937 25.0938C10.2875 25.5062 9.29999 27.025 9.55624 28.5438C9.81874 30.075 11.05 31.125 12.5875 31.125C13.475 31.125 14.1687 30.8438 14.7875 30.225C16.4437 28.5687 15.6687 25.6875 13.4062 25.0938C12.9625 24.9812 12.2062 24.9812 11.7937 25.0938ZM13.4312 26.3438C14.1187 26.6875 14.5125 27.3125 14.5125 28.0687C14.5187 28.45 14.4875 28.5625 14.3062 28.925C13.4125 30.675 10.8125 30.1375 10.7 28.175C10.6687 27.6187 10.8062 27.2188 11.1687 26.8125C11.775 26.1375 12.6625 25.95 13.4312 26.3438Z" fill="#1D2618"/>
<path d="M23.0688 25.1002C22.5563 25.2377 22.1313 25.4877 21.7063 25.9127C20.0625 27.5689 20.7938 30.3502 23.0563 31.0252C23.5375 31.1689 24.325 31.1564 24.8313 31.0002C25.3125 30.8502 25.9063 30.4689 26.225 30.1064C26.5438 29.7377 26.8563 29.0502 26.9375 28.5377C27.175 27.0064 26.1938 25.4814 24.7125 25.1002C24.2375 24.9752 23.5188 24.9752 23.0688 25.1002ZM24.675 26.3127C25.1 26.4939 25.575 27.0127 25.7188 27.4439C25.8625 27.8689 25.825 28.4939 25.6375 28.8814C25.3438 29.4877 24.7188 29.9252 24.0563 29.9814C22.6313 30.1127 21.5438 28.6002 22.1375 27.3064C22.3875 26.7564 22.8938 26.3314 23.4688 26.1814C23.7688 26.1002 24.325 26.1627 24.675 26.3127Z" fill="#1D2618"/>
</g>
<defs>
<clipPath id="clip0_64_147">
<rect width="32" height="32" fill="white"/>
</clipPath>
</defs>
</svg>
