<svg width="80" height="80" viewBox="0 0 80 80" fill="none" xmlns="http://www.w3.org/2000/svg">
<path d="M29.875 3.81249C28.875 4.37499 28.75 5.56248 28.75 14.375C28.75 26.1875 28.8125 26.25 35.6875 26.25H39.875L40.625 34.1875C41 38.625 41.25 43.0625 41.125 44.1875L40.9375 46.1875L37.8125 44.25C33.25 41.3125 28.125 41.75 28.125 44.9375C28.125 45.5625 31.625 50.0625 35.9375 54.9375C40.25 59.875 43.75 64.1875 43.75 64.625C43.75 65 43.3125 65.8125 42.875 66.375C42.1875 67.3125 42.1875 68.3125 42.8125 71.875C43.25 74.3125 43.75 76.4375 43.9375 76.6875C44.375 77.0625 65.875 73.75 66.9375 73.0625C67.4375 72.8125 67.375 71.1875 66.8125 67.8125C66.25 64 65.8125 62.875 64.875 62.625C63.4375 62.25 63.4375 60.5 65 55.9375C65.8125 53.625 66.25 50.6875 66.25 47.875C66.25 43.4375 64.8125 33.125 64.0625 31.875C63.875 31.5625 62.5625 31.25 61.25 31.25C59.9375 31.25 58.625 30.9375 58.4375 30.625C58.25 30.25 56.9375 30 55.625 30C54.3125 30 53 29.6875 52.8125 29.375C52.625 29 51.5 28.75 50.3125 28.75C49 28.75 48.125 28.375 47.875 27.75C47.375 26.375 47.3125 26.4375 49.0625 26C51.375 25.4375 51.875 23.375 51.875 14.1875C51.875 2.56248 52.4375 3.12499 40.4375 3.12499C35.125 3.12499 30.4375 3.43749 29.875 3.81249ZM48.3125 5.81249C49.25 6.49999 49.375 7.62498 49.25 15C49.0625 22.4375 48.9375 23.4375 48 23.625C47.1875 23.8125 46.875 23.4375 46.875 22.375C46.875 20.3125 45.75 19.375 43.375 19.375C41.0625 19.375 39.375 20.75 39.375 22.5625C39.375 23.625 38.9375 23.75 35.375 23.75C32.3125 23.75 31.3125 23.5 31 22.75C30.8125 22.1875 30.625 18.3125 30.625 14.0625C30.625 7.31248 30.75 6.24999 31.75 5.68749C33.375 4.74999 47 4.81249 48.3125 5.81249ZM46 30.75C46.8125 35.3125 47.5 39.125 47.5 39.1875C47.5 39.3125 47.9375 39.375 48.5 39.375C49.375 39.375 49.4375 38.8125 49.125 35.375C48.75 32.125 48.8125 31.375 49.625 31.0625C50.875 30.5625 51.3125 31.375 52.125 35.875C52.625 38.5625 53.125 39.6875 53.75 39.6875C54.5 39.6875 54.6875 38.875 54.6875 35.9375C54.6875 33.125 54.9375 32.1875 55.5625 32.1875C56.5 32.1875 57.125 33.75 57.8125 37.625C58.0625 39.1875 58.5 40 59.1875 40C60 40 60.125 39.4375 59.875 36.875C59.625 34.5625 59.8125 33.75 60.4375 33.4375C62 32.875 62.3125 33.5625 63.1875 38.875C64.25 45.875 64.125 51.5625 62.8125 55C62.1875 56.5625 61.5625 58.9375 61.3125 60.3125L60.9375 62.75L54.6875 63.875C46.375 65.25 46.625 65.3125 45.5 62.9375C44.9375 61.875 41.5 57.5 37.875 53.3125C34.1875 49.125 31.125 45.4375 31.125 45.1875C30.9375 43.875 33.5 44.5 36.875 46.5625C38.9375 47.8125 41.125 48.75 41.75 48.625C43.3125 48.3125 43.625 41.625 42.625 31C41.875 23.75 41.875 22.25 42.5625 21.8125C43.0625 21.5625 43.6875 21.5625 44 21.875C44.25 22.125 45.1875 26.125 46 30.75ZM64.5 68.0625C64.75 69.625 64.875 70.9375 64.75 71.0625C64.5625 71.3125 47.125 74.375 46.125 74.375C45.75 74.375 45.125 71.8125 44.8125 68.75C44.6875 68.0625 46.5625 67.5625 52.5 66.5C56.8125 65.75 61.125 65.1875 62.1875 65.1875C63.875 65.3125 64.0625 65.5625 64.5 68.0625Z" fill="#D1CCBB"/>
<path d="M42.1875 11.875L39.125 15L37.5 13.4375C35.75 11.75 34.375 11.4375 34.375 12.6875C34.375 13.625 38.1875 17.5 39.125 17.5C40.1875 17.5 47.0625 10.125 46.625 9.4375C45.9375 8.3125 45.4375 8.5625 42.1875 11.875Z" fill="#D1CCBB"/>
<path d="M57.0625 9.74996C55.9375 10.25 55.9375 24.4375 57 25.5C58.125 26.625 70.875 26.5 71.8125 25.375C72.3125 24.8125 72.5 22 72.375 17.125L72.1875 9.68746L65 9.56246C61.0625 9.49996 57.4375 9.62496 57.0625 9.74996ZM70.5 17.625L70.6875 23.75H64.375H58.125V17.9375C58.125 14.6875 58.3125 11.875 58.5625 11.625C58.8125 11.375 61.5625 11.3125 64.6875 11.375L70.3125 11.5625L70.5 17.625Z" fill="#D1CCBB"/>
<path d="M62.375 15.0625C61.0625 15.8125 60.875 18.75 62 19.875C62.9375 20.8125 65.8125 20.8125 66.75 19.875C67.9375 18.6875 67.6875 15.75 66.3125 15C64.8125 14.25 63.75 14.25 62.375 15.0625ZM65 17.8125C65 18.3125 64.75 18.75 64.375 18.75C64.0625 18.75 63.75 18.3125 63.75 17.8125C63.75 17.3125 64.0625 16.875 64.375 16.875C64.75 16.875 65 17.3125 65 17.8125Z" fill="#D1CCBB"/>
<path d="M8.875 18.25C7.8125 19.3125 7.8125 32.5625 8.875 33.625C9.375 34.125 12 34.375 16.6875 34.375C25.1875 34.375 25 34.5625 25 25.6875C25 17.5 25 17.5 16.3125 17.5C11.9375 17.5 9.375 17.75 8.875 18.25ZM22.5 25.9375V31.9375L16.4375 31.75L10.3125 31.5625L10.125 26.625C10 23.875 10.0625 21.3125 10.25 20.8125C10.5 20.25 12.125 20 16.5625 20H22.5V25.9375Z" fill="#D1CCBB"/>
<path d="M14.5 23.5C11.375 25.625 14.375 30.4375 17.8125 28.875C19.0625 28.3125 19.375 27.6875 19.375 25.9375C19.375 24.125 19.0625 23.625 17.75 23.125C15.8125 22.375 16.1875 22.3125 14.5 23.5ZM16.9375 26.4375C16.125 27.25 15.3125 26.625 15.9375 25.6875C16.125 25.3125 16.625 25.1875 17 25.375C17.375 25.625 17.375 26 16.9375 26.4375Z" fill="#D1CCBB"/>
</svg>
