<svg width="80" height="80" viewBox="0 0 80 80" fill="none" xmlns="http://www.w3.org/2000/svg">
<g clip-path="url(#clip0_96_49)">
<path d="M18.4688 0.859367L17.2188 1.70312L15.8438 1.57812C15.0781 1.51562 14.2969 1.51562 14.0938 1.57812C13.8438 1.67187 13.5312 2.14062 13.0781 3.10937L12.4219 4.51562L11.1406 5.09374C9.3125 5.90624 9.32812 5.90624 9.45312 7.84374L9.54688 9.45312L8.6875 10.6875C8.20312 11.375 7.8125 12.0469 7.8125 12.2031C7.8125 12.3594 8.20312 13.0625 8.6875 13.7656L9.5625 15.0469L9.45312 16.6406C9.32812 18.5312 9.28125 18.4531 11.1094 19.3125L12.4062 19.9219L13.0781 21.3594C13.5781 22.4375 13.8438 22.8281 14.0938 22.8906C14.2969 22.9375 15.0938 22.9219 15.8594 22.8594L17.2656 22.7344L18.3281 23.4844C19.5625 24.3437 20.0469 24.5625 20.4219 24.4219C20.5781 24.3594 21.1875 23.9687 21.7812 23.5469L22.875 22.7656L24.4062 22.875C25.3281 22.9375 26.0625 22.9062 26.2344 22.8125C26.3906 22.7344 26.8125 22.0469 27.1719 21.2812L27.8281 19.9062L29.2656 19.2031L30.7031 18.5156V16.7187V14.9219L31.5312 13.7656C31.9844 13.125 32.3438 12.4375 32.3438 12.2187C32.3438 12.0156 31.9688 11.2969 31.4844 10.6094L30.625 9.39062L30.7188 7.99999C30.875 5.95312 30.875 5.95312 29.2031 5.15624L27.7812 4.48437L27.1562 3.10937C26.4062 1.46874 26.2812 1.40624 24.3281 1.59374L22.9688 1.71874L21.7344 0.859367C21.0469 0.374992 20.3281 -7.62939e-06 20.1094 -7.62939e-06C19.9062 -7.62939e-06 19.1719 0.390617 18.4688 0.859367ZM21.2656 3.06249L22.2656 3.78124L23.6875 3.67187L25.0938 3.56249L25.6562 4.79687L26.2188 6.01562L27.4844 6.64062L28.75 7.24999L28.6562 8.67187L28.5625 10.0781L29.2812 11.0781C29.6719 11.6406 30 12.1406 30 12.2031C30 12.2812 29.6719 12.7969 29.2812 13.3594L28.5469 14.4062L28.6406 15.7969L28.75 17.2031L27.5312 17.7812L26.3281 18.3594L25.7031 19.6406C25.1875 20.6875 25.0156 20.9062 24.7656 20.8594C24.5938 20.8281 23.9844 20.7656 23.4219 20.7031L22.3906 20.625L21.25 21.3906L20.1094 22.1719L19.125 21.5C18.5938 21.125 18.0312 20.7656 17.8594 20.7187C17.7031 20.6719 17.0312 20.6875 16.3594 20.75L15.125 20.875L14.5469 19.6094L13.9531 18.3437L12.6875 17.7656C11.4531 17.2031 11.4219 17.1875 11.4844 16.6875C11.75 14.5469 11.7656 14.625 10.9219 13.3594L10.1406 12.1875L10.8906 11.1406C11.625 10.1094 11.6406 10.0625 11.5938 9.06249C11.5781 8.49999 11.5156 7.85937 11.4844 7.64062C11.3906 7.26562 11.4844 7.20312 12.6562 6.67187L13.9219 6.09374L14.5 4.84374L15.0781 3.59374L16.4844 3.68749L17.8906 3.78124L18.9062 3.07812C19.4688 2.68749 20 2.35937 20.0938 2.35937C20.1719 2.34374 20.7031 2.67187 21.2656 3.06249Z" fill="#D1CCBB"/>
<path d="M18.9688 4.37501C12.5625 5.31251 9.92188 13.125 14.4531 17.75C16.3438 19.6875 19.1094 20.5313 21.75 19.9844C24.5312 19.4063 27.0781 16.9844 27.8125 14.25C28.0938 13.1563 28.0312 11 27.6719 9.82813C26.5312 6.15626 22.7969 3.81251 18.9688 4.37501ZM21.1094 6.40626C22.875 6.75001 24.4219 7.89063 25.3281 9.56251C25.8438 10.5 25.8594 10.6094 25.8594 12.1875C25.8594 13.6563 25.8125 13.9219 25.4375 14.7031C24.8438 15.8906 23.7344 16.9844 22.5 17.5625C21.5938 17.9844 21.3281 18.0469 20.0781 18.0469C18.8906 18.0469 18.5312 17.9844 17.7812 17.625C16.5312 17.0469 15.4063 15.9531 14.7969 14.7031C14.3438 13.7656 14.2969 13.5625 14.2969 12.1875C14.3125 10.875 14.3594 10.5938 14.7656 9.76563C15.5625 8.12501 17.0469 6.90626 18.8281 6.46876C19.8281 6.21876 20.0938 6.21876 21.1094 6.40626Z" fill="#D1CCBB"/>
<path d="M21.0938 11.0156L18.6875 13.4219L17.6406 12.4219C17.0625 11.8594 16.4688 11.4062 16.2969 11.4062C15.7344 11.4062 15.3125 11.8594 15.3125 12.4531C15.3125 12.9375 15.4688 13.1562 16.75 14.3906C17.9219 15.5156 18.2812 15.7812 18.6719 15.7812C19.0938 15.7812 19.5469 15.375 22.0938 12.8281C24.8281 10.0781 25.0312 9.82812 24.9375 9.42188C24.7969 8.89062 24.4375 8.59375 23.9062 8.59375C23.6094 8.59375 22.9688 9.14062 21.0938 11.0156Z" fill="#D1CCBB"/>
<path d="M58.3594 3.23436C56.9375 3.46873 55.9063 3.71873 55.75 3.85936C55.5781 3.99998 55.4688 4.32811 55.4688 4.62498C55.4688 5.37498 55.9844 5.68748 56.9844 5.54686C57.7344 5.43748 57.7344 5.43748 57.4219 5.74998C56.9688 6.18748 13.3594 43.25 8.125 47.625C5.8125 49.5625 5.625 49.7656 5.625 50.25C5.625 50.7344 6.14063 51.25 6.64063 51.25C7.14063 51.25 6.51563 51.7812 43.4375 20.3906C60.7031 5.71873 59.1563 7.01561 59 7.42186C58.9219 7.59373 58.8438 8.03123 58.7969 8.37498C58.7188 8.92186 58.7656 9.06248 59.0781 9.28123C59.6094 9.64061 60.0938 9.59373 60.4531 9.12498C60.625 8.90623 61.1406 7.60936 61.5938 6.23436C62.375 3.87498 62.4063 3.71873 62.1875 3.31248C61.8594 2.74998 61.3125 2.73436 58.3594 3.23436Z" fill="#D1CCBB"/>
<path d="M55.8438 12.3594C55.5625 12.6719 55.5469 13.0312 55.5 17.9062L55.4531 23.125H50.3125C45.3594 23.125 45.1406 23.1406 44.8438 23.4375C44.5469 23.7344 44.5312 23.9531 44.5312 30.3125V36.875H39.2344C33.9219 36.875 33.9219 36.875 33.6875 37.2188C33.4844 37.5 33.4375 38.0469 33.4375 39.875V42.1875H28.3125C23.9375 42.1875 23.1406 42.2188 22.8438 42.4375C22.5 42.6719 22.5 42.6719 22.5 47.9062V53.125H17.2656C12.2344 53.125 12.0156 53.1406 11.7188 53.4375C11.4219 53.7344 11.4062 53.9531 11.4062 61.7969V69.8438H6.32812C1.45312 69.8438 1.23438 69.8594 0.9375 70.1562C0.640625 70.4531 0.625 70.6719 0.625 74.8906C0.625 78.6406 0.65625 79.3594 0.875 79.6562L1.10938 80H40H78.8906L79.125 79.6562C79.3438 79.3594 79.375 78.6406 79.375 74.8906C79.375 70.6719 79.3594 70.4531 79.0625 70.1562C78.7656 69.8594 78.5469 69.8438 73.6719 69.8438H68.5938V41.25C68.5938 12.8594 68.5938 12.6562 68.2812 12.3438C67.9844 12.0469 67.7656 12.0312 62.0625 12.0312C56.25 12.0312 56.1406 12.0312 55.8438 12.3594ZM66.5625 41.9531V69.8438H62.0312H57.5V41.9531V14.0625H62.0312H66.5625V41.9531ZM55.4688 47.5V69.8438H51.0156H46.5625V47.5V25.1562H51.0156H55.4688V47.5ZM44.5312 54.375V69.8438H40H35.4688V54.375V38.9062H40H44.5312V54.375ZM33.4375 57.0312V69.8438H28.9844H24.5312V57.0312V44.2188H28.9844H33.4375V57.0312ZM22.5 62.5V69.8438H17.9688H13.4375V62.5V55.1562H17.9688H22.5V62.5ZM77.3438 74.9219V77.9688H40H2.65625V74.9219V71.875H40H77.3438V74.9219Z" fill="#D1CCBB"/>
</g>
<defs>
<clipPath id="clip0_96_49">
<rect width="80" height="80" fill="white"/>
</clipPath>
</defs>
</svg>
