<svg width="80" height="80" viewBox="0 0 80 80" fill="none" xmlns="http://www.w3.org/2000/svg">
<g clip-path="url(#clip0_56_72)">
<path d="M54.1875 1.125C52.3125 2.25 50 6.4375 50 8.625C50 9.875 49.6875 10 46.6875 10C35.8125 10 23.8125 17.5625 18.9375 27.5C16.4375 32.5625 15.6875 36 15.625 41.6875V46.1875L7.9375 46.375L0.312503 46.5625L0.125003 50.125C-0.0624971 53.4375 0.0625029 53.75 1.25 53.75C2.25 53.75 2.5 53.375 2.5 51.5625V49.375H6.25H9.9375L10.125 55.4375L10.3125 61.5625H16.875H23.4375L23.625 55.4375L23.8125 49.375H27.1875H30.625V63.4375V77.5H16.5625H2.5V67.5C2.5 57.875 2.4375 57.5 1.25 57.5C2.86102e-06 57.5 2.91318e-06 57.8125 0.125003 68.5625L0.312503 79.6875H16.875H33.4375L33.625 75.6875C33.8125 72.3125 33.9375 71.8125 34.875 72.0625C45.1875 75.3125 54.1875 75.125 61.6875 71.5C63.25 70.6875 64.0625 69.875 64.0625 69.0625C64.0625 67.5625 63.5625 67.625 57.8125 69.625C52.8125 71.375 47 72.125 45.625 71.3125C44.9375 70.8125 45.375 70.0625 47.9375 67.3125C50.625 64.5 51.1875 63.4375 51.5625 60.875C52.25 55.6875 52.5 54.6875 53.8125 52.5L55.125 50.375L55.9375 52.3125C57 54.875 57.8125 55.25 65.5625 56.8125C69.1875 57.5625 72.1875 58.25 72.3125 58.375C72.4375 58.4375 71.375 59.875 69.9375 61.5C67.4375 64.3125 67.0625 66.25 69 66.25C70.25 66.25 74.8125 60.9375 76.5625 57.5C79 52.6875 80 48.25 80 42.125C80 32.5 76.5625 24.4375 69.75 18.25C66.9375 15.6875 66.8125 15.4375 67.4375 13.625C69.125 8.875 67.6875 3.375 64.25 1.25C61.625 -0.3125 56.625 -0.375 54.1875 1.125ZM61.125 3.1875C65.625 4.75 66.1875 10.3125 62.5625 17.5C59.5 23.5625 59.1875 23.75 57.375 20.5C55.25 16.875 53.125 11 53.125 8.8125C53.125 6.8125 55.125 3.875 57.125 3.125C58.875 2.375 58.875 2.375 61.125 3.1875ZM50.6875 13.6875C50.875 13.875 51.5625 15.3125 52.125 16.875C53.375 20.0625 56.6875 25.6875 57.75 26.375C59.4375 27.5 60.75 26.75 63 23.125C64.25 21.125 65.625 19.4375 66 19.375C66.75 19.375 69.625 22.375 72.125 25.75L73.8125 28L70.8125 29C69.1875 29.5 66.6875 30.125 65.3125 30.375C61.0625 31.125 58.5 32.4375 57 34.75C56.1875 35.9375 55.25 36.875 54.8125 36.6875C54.375 36.5625 53.9375 34.75 53.75 32.4375C53.5 29.5625 53.0625 27.875 52.0625 26.625C51.3125 25.6875 50.5 23.875 50.25 22.5625C49.75 19.75 48.375 17.5 47.1875 17.5C46 17.5 43.75 15.25 43.75 14.125C43.75 12.75 49.4375 12.375 50.6875 13.6875ZM41.25 15.0625C41.25 17.125 42.4375 18.8125 44.75 19.75C46.5 20.5 46.9375 21.0625 47.25 23.1875C47.5 24.5625 48.375 26.75 49.25 28C50.3125 29.5625 50.8125 31.125 50.75 32.8125C50.625 40.5 55.4375 43.1875 59.0625 37.4375C59.9375 36.0625 61.3125 34.6875 62.0625 34.4375C65.0625 33.25 74.625 31.25 75 31.6875C75.75 32.5 76.8125 36.3125 77.25 39.6875C77.625 43.125 76.8125 48.8125 75.25 52.875L74.25 55.4375L70.4375 54.6875C68.3125 54.25 64.9375 53.5625 62.9375 53.125C59.4375 52.4375 59.25 52.25 58.125 49.625C57.1875 47.5 56.625 46.875 55.4375 46.875C52.625 46.875 49.5625 52.25 48.8125 58.5C48.375 62.25 48.125 62.8125 45.5 65.3125C43.875 66.8125 42.4375 68.625 42.1875 69.375C41.6875 70.9375 40.6875 70.9375 36.8125 69.3125L33.75 68V57.875C33.75 50.8125 33.5 47.5 33 47C32.5625 46.5625 30.375 46.25 27.4375 46.25C21 46.25 20.8125 45.5625 25.375 39.5625C27.9375 36.1875 28.1875 32.5625 26.1875 28.125C25.5 26.5625 25.0625 24.75 25.3125 23.9375C25.75 22.0625 31.1875 17.8125 35.9375 15.5625C40.375 13.4375 41.25 13.3125 41.25 15.0625ZM24 30.9375C25.0625 34.125 24.75 35.5625 22.3125 38.5C20.1875 41.0625 19.375 42.75 19.3125 44.8125L19.25 46.5625L18.6875 44.6875C17.9375 42.25 19 35.1875 20.75 31.1875C21.4375 29.5 22.25 28.125 22.5 28.125C22.8125 28.125 23.4375 29.375 24 30.9375ZM20.625 54.375V59.375H16.875H13.125V54.375V49.375H16.875H20.625V54.375Z" fill="#D1CCBB"/>
<path d="M56.0625 6.125C53.6875 8.75 55.6875 13.125 59.25 13.125C60.25 13.125 61.5 12.625 62.0625 12C63.375 10.5625 63.4375 7.25 62.125 6C60.8125 4.625 57.3125 4.75 56.0625 6.125ZM60.25 9.4375C59.75 10.3125 58.125 10.125 58.125 9.1875C58.125 8.6875 58.3125 8.125 58.5625 7.9375C59.125 7.375 60.6875 8.75 60.25 9.4375Z" fill="#D1CCBB"/>
<path d="M44.5 5.125C44.625 5.9375 45.125 6.5625 45.625 6.5625C46.125 6.5625 46.625 5.9375 46.75 5.125C46.9375 4.0625 46.625 3.75 45.625 3.75C44.625 3.75 44.3125 4.0625 44.5 5.125Z" fill="#D1CCBB"/>
<path d="M39.6875 5C39.125 5.9375 39.9375 6.875 41.3125 6.875C42.0625 6.875 42.5 6.4375 42.5 5.625C42.5 4.3125 40.4375 3.8125 39.6875 5Z" fill="#D1CCBB"/>
<path d="M35 6.87502C35 7.87502 35.3125 8.18752 36.4375 8.00002C37.1875 7.87502 37.8125 7.37502 37.8125 6.87502C37.8125 6.37502 37.1875 5.87502 36.4375 5.75002C35.3125 5.56252 35 5.87502 35 6.87502Z" fill="#D1CCBB"/>
<path d="M30.875 7.81251C30.625 8.37501 30.75 9.12501 31.125 9.50001C32.0625 10.4375 33.875 9.56251 33.625 8.31251C33.375 6.87501 31.375 6.50001 30.875 7.81251Z" fill="#D1CCBB"/>
<path d="M26.5 10.0625C26 10.9375 27.8125 12.75 28.6875 12.25C29.875 11.5 29.5 9.37501 28.1875 9.37501C27.5 9.37501 26.75 9.68751 26.5 10.0625Z" fill="#D1CCBB"/>
<path d="M22.875 12.875C22.625 13.5 22.75 14.25 23.0625 14.5625C23.9375 15.4375 25.75 14.5625 25.5 13.3125C25.25 11.8125 23.375 11.5625 22.875 12.875Z" fill="#D1CCBB"/>
<path d="M19.8125 15.4375C18.875 16.3125 19.375 18.125 20.5625 18.125C22.1875 18.125 22.8125 17.0625 21.875 15.9375C21 14.9375 20.4375 14.75 19.8125 15.4375Z" fill="#D1CCBB"/>
<path d="M16.5 19.6875C16.25 20.25 16.375 21 16.75 21.375C17.6875 22.3125 19.5 21.4375 19.25 20.1875C19 18.75 17 18.375 16.5 19.6875Z" fill="#D1CCBB"/>
<path d="M14.375 23.125C13.25 23.8125 14.125 25.75 15.4375 25.5C16.0625 25.375 16.625 24.875 16.75 24.3125C17 23.125 15.5625 22.375 14.375 23.125Z" fill="#D1CCBB"/>
<path d="M12.125 27.8125C11.6875 28.9375 12.3125 30 13.4375 30C14.375 30 14.9375 28.8125 14.5625 27.625C14.1875 26.5625 12.5625 26.6875 12.125 27.8125Z" fill="#D1CCBB"/>
<path d="M11.0625 31.625C10.0625 32.625 10.625 34.375 11.9375 34.375C12.875 34.375 13.1875 34.0625 13 33C12.8125 31.625 11.8125 30.9375 11.0625 31.625Z" fill="#D1CCBB"/>
<path d="M9.8125 36.625C8.8125 37.625 9.4375 38.75 11 38.75C12.1875 38.75 12.5625 38.4375 12.375 37.6875C12.1875 36.5 10.5625 35.875 9.8125 36.625Z" fill="#D1CCBB"/>
<path d="M9.62499 41.5C9.18749 42.6875 9.81249 43.75 11 43.75C11.625 43.75 11.875 43.25 11.75 42.375C11.5 40.75 10.125 40.125 9.62499 41.5Z" fill="#D1CCBB"/>
</g>
<defs>
<clipPath id="clip0_56_72">
<rect width="80" height="80" fill="white"/>
</clipPath>
</defs>
</svg>
