<svg width="16" height="17" viewBox="0 0 16 17" fill="none" xmlns="http://www.w3.org/2000/svg">
<g clip-path="url(#clip0_96_6)">
<path d="M0.85 0.575C0.484375 0.7125 0.1875 1.01562 0.065625 1.38125L0 1.575V8.5V15.425L0.065625 15.6187C0.190625 15.9937 0.50625 16.3094 0.88125 16.4344L1.075 16.5H8H14.925L15.1188 16.4344C15.4938 16.3094 15.8094 15.9937 15.9344 15.6187L16 15.425V8.5V1.575L15.9344 1.38125C15.8094 1.00625 15.4938 0.690625 15.1188 0.565625L14.925 0.5L7.9875 0.503125H1.04688L0.85 0.575ZM14.9844 1.12187C15.1469 1.19375 15.3063 1.35312 15.3781 1.51562C15.4344 1.63437 15.4375 1.925 15.4375 8.5C15.4375 15.075 15.4344 15.3656 15.3781 15.4844C15.3063 15.6469 15.1469 15.8062 14.9844 15.8781C14.8688 15.9312 14.725 15.9375 12.775 15.9375H10.6875V13.5625V11.1875H12.0156H13.3438V9.5625V7.9375H12.0156H10.6875V7.24062C10.6906 6.49375 10.6938 6.46875 10.8562 6.40625C10.9094 6.3875 11.4313 6.375 12.2844 6.375H13.625V4.76562V3.15625H12.0813C10.8094 3.15625 10.4938 3.16562 10.2812 3.20625C8.99687 3.45 7.92188 4.45312 7.57812 5.725C7.48125 6.0875 7.4375 6.5625 7.4375 7.33437V7.9375H6.375H5.3125V9.5625V11.1875H6.375H7.4375V13.5625V15.9375H4.29063C1.30625 15.9375 1.13437 15.9344 1.01562 15.8781C0.853125 15.8062 0.69375 15.6469 0.621875 15.4844C0.565625 15.3656 0.5625 15.075 0.5625 8.5C0.5625 1.925 0.565625 1.63437 0.621875 1.51562C0.69375 1.35312 0.853125 1.19375 1.01562 1.12187C1.13437 1.06563 1.425 1.0625 8 1.0625C14.575 1.0625 14.8656 1.06563 14.9844 1.12187ZM13.0625 4.76562V5.80937L11.9 5.81875L10.7344 5.82812L10.5563 5.91562C10.4594 5.9625 10.3438 6.05 10.3 6.10938C10.1344 6.325 10.125 6.39375 10.125 7.4875V8.5H11.4531H12.7812V9.5625V10.625H11.4531H10.125V13.2812V15.9375H9.0625H8V13.2812V10.625H6.9375H5.875V9.5625V8.5H6.93438H7.99375L8.00938 7.39687C8.02812 6.25625 8.04375 6.075 8.18125 5.6875C8.51562 4.73125 9.3625 3.975 10.3281 3.77187C10.5 3.73438 10.8156 3.72188 11.8063 3.72188L13.0625 3.71875V4.76562Z" fill="#D1CCBB"/>
</g>
<defs>
<clipPath id="clip0_96_6">
<rect width="16" height="16" fill="white" transform="translate(0 0.5)"/>
</clipPath>
</defs>
</svg>
