<svg width="16" height="17" viewBox="0 0 16 17" fill="none" xmlns="http://www.w3.org/2000/svg">
<path d="M3.5 1.8625C2.6375 2.1375 1.9875 2.675 1.55 3.5C1.325 3.9 1.3125 4.2875 1.3125 8.5C1.3125 12.9375 1.325 13.075 1.5875 13.5625C1.9 14.15 2.3875 14.625 3 14.95C3.4 15.175 3.7875 15.1875 8 15.1875C12.2125 15.1875 12.6 15.175 13 14.95C13.6125 14.625 14.1 14.15 14.4125 13.5625C14.675 13.075 14.6875 12.9375 14.6875 8.5C14.6875 4.0625 14.675 3.925 14.4125 3.4375C14.1 2.85 13.6125 2.375 13 2.05C12.6 1.8375 12.1875 1.8125 8.1875 1.7875C5.7875 1.775 3.675 1.8125 3.5 1.8625ZM12.3125 2.55C13.1 2.8 13.7125 3.4 13.9375 4.175C14.2125 5.075 14.2125 11.925 13.9375 12.825C13.7125 13.6 13.1 14.2 12.3125 14.45C11.4375 14.7 4.5625 14.7 3.6875 14.45C2.9 14.2 2.2875 13.6 2.0625 12.825C1.7875 11.925 1.7875 5.075 2.0625 4.175C2.2875 3.4125 2.8875 2.8 3.6375 2.5625C4.45 2.3125 11.475 2.3 12.3125 2.55Z" fill="#D1CCBB"/>
<path d="M11.7125 3.35C11.5875 3.4875 11.5 3.7875 11.5 4.1C11.5 4.7 11.8125 5 12.4375 5C13.2375 5 13.6875 3.9375 13.125 3.375C12.8 3.05 12 3.0375 11.7125 3.35ZM12.6625 3.925C12.7625 4.175 12.4125 4.4625 12.225 4.275C12.05 4.1 12.1875 3.75 12.425 3.75C12.5125 3.75 12.625 3.825 12.6625 3.925Z" fill="#D1CCBB"/>
<path d="M6.9375 4.2373C5.6875 4.5748 4.5875 5.4748 4.0375 6.6123C3.7375 7.2248 3.7 7.4623 3.6875 8.4998C3.6875 9.5498 3.725 9.7623 4.0375 10.3748C4.5 11.2748 5.2375 12.0123 6.1 12.4498C6.7375 12.7623 6.95 12.7998 8 12.7998C9.05 12.7998 9.2625 12.7623 9.9 12.4498C10.7625 12.0123 11.5 11.2748 11.9625 10.3748C12.275 9.7623 12.3125 9.5498 12.3125 8.4998C12.3 7.4623 12.2625 7.2248 11.9625 6.6123C11.55 5.7623 10.6 4.8373 9.7875 4.4873C9.1375 4.1998 7.5625 4.0623 6.9375 4.2373ZM9.4625 5.1248C11.85 6.1748 12.425 9.2123 10.6 11.0873C8.3125 13.4248 4.325 11.7748 4.325 8.4998C4.3125 5.8498 7.0375 4.0498 9.4625 5.1248Z" fill="#D1CCBB"/>
<path d="M6.93751 6.2377C5.68751 6.8127 5.15001 8.3002 5.73751 9.5627C6.62501 11.4752 9.37501 11.4752 10.2625 9.5627C10.7 8.6252 10.4625 7.3252 9.73751 6.6627C9.01251 6.0002 7.83751 5.8252 6.93751 6.2377ZM8.58751 6.7627C9.42501 7.0752 9.97501 8.0002 9.81251 8.8252C9.71251 9.3877 9.10001 10.0752 8.55001 10.2502C7.30001 10.6627 5.93751 9.4752 6.17501 8.1877C6.32501 7.4127 7.20001 6.6377 7.96251 6.6252C8.11251 6.6252 8.38751 6.6877 8.58751 6.7627Z" fill="#D1CCBB"/>
</svg>
