<svg width="16" height="17" viewBox="0 0 16 17" fill="none" xmlns="http://www.w3.org/2000/svg">
<path d="M7.61562 1.56575C7.39687 1.61575 7.17187 1.75638 6.55937 2.21888L5.94687 2.6845L4.6375 2.69388C3.1875 2.70325 3.19687 2.70325 2.97187 2.91575C2.75937 3.11888 2.75 3.1595 2.75 4.18763V5.1095L1.90312 5.747C1.4375 6.10013 1.04062 6.41575 1.02187 6.45013C0.974998 6.5345 0.959373 9.397 0.990623 12.2814L1.01562 14.3595L1.13125 14.6033C1.33437 15.0283 1.72187 15.3439 2.15625 15.4345C2.28437 15.4626 3.7625 15.4689 8.10937 15.4626L13.8906 15.4533L14.1312 15.3376C14.5312 15.147 14.8 14.847 14.9344 14.447C15 14.2533 15 14.2189 15 10.347V6.43763L14.85 6.322C14.7687 6.25638 14.375 5.95638 13.975 5.65638L13.25 5.1095V4.18763C13.25 3.1595 13.2406 3.11888 13.0281 2.91575C12.8031 2.70325 12.8125 2.70325 11.3625 2.69388L10.0531 2.6845L9.44062 2.222C8.8 1.73763 8.65 1.64388 8.39062 1.57513C8.21562 1.52825 7.79687 1.522 7.61562 1.56575ZM8.3375 2.11888C8.41875 2.15013 8.64062 2.29075 8.82812 2.43138L9.16562 2.68763H8H6.83437L7.17187 2.43138C7.35937 2.29075 7.575 2.15325 7.65625 2.122C7.84375 2.047 8.14687 2.047 8.3375 2.11888ZM12.5781 3.25013C12.75 3.31575 12.75 3.30638 12.75 5.647V7.797L10.7 9.39075C9.40625 10.397 8.58125 11.0189 8.45937 11.0783C8.29062 11.1595 8.23125 11.172 7.99687 11.172C7.75 11.172 7.7125 11.1626 7.51875 11.0626C7.4 11.0001 6.4375 10.2751 5.28125 9.37513L3.25 7.797V5.647C3.25 3.32825 3.25 3.31575 3.4125 3.25013C3.5125 3.2095 12.4719 3.2095 12.5781 3.25013ZM14.1781 6.4845L14.3062 6.58138L13.7781 6.99388L13.25 7.40638V6.59388V5.7845L13.65 6.0845C13.8687 6.25013 14.1062 6.43138 14.1781 6.4845ZM2.75 6.6095V7.40638L2.22187 6.99388L1.69375 6.58138L2.19687 6.20013C2.475 5.98763 2.7125 5.81575 2.72812 5.81575C2.74062 5.81263 2.75 6.172 2.75 6.6095ZM4.11875 9.15325L6.625 11.1001L6.50625 11.1845C5.7375 11.7408 1.74375 14.5314 1.72187 14.5314C1.66562 14.5314 1.56562 14.297 1.53125 14.0908C1.5125 13.9626 1.5 12.6845 1.5 10.5064C1.5 7.24388 1.50312 7.122 1.55625 7.16263C1.5875 7.1845 2.74062 8.08138 4.11875 9.15325ZM14.4687 14.072C14.4344 14.2908 14.3375 14.5314 14.2781 14.5314C14.2562 14.5314 9.53125 11.2314 9.38125 11.1095C9.37812 11.1064 10.525 10.2095 11.9281 9.11575L14.4844 7.13138L14.4937 10.4939C14.5 12.7158 14.4906 13.9314 14.4687 14.072ZM7.62812 11.672C8.00312 11.7595 8.40312 11.7095 8.75 11.5345L8.92187 11.447L11.3687 13.1689C13.25 14.4908 13.8031 14.8939 13.7594 14.9095C13.6875 14.9408 2.31562 14.9408 2.24062 14.9126C2.2 14.8939 2.77187 14.4751 4.63125 13.1689L7.07812 11.447L7.25 11.5345C7.34687 11.5845 7.51562 11.6439 7.62812 11.672Z" fill="#D1CCBB"/>
<path d="M7.59375 4.72191C6.78125 4.84691 6.075 5.38128 5.71563 6.14066C5.54063 6.51566 5.49063 6.79691 5.50938 7.27503C5.525 7.71878 5.575 7.93753 5.7375 8.27816C5.98125 8.80003 6.375 9.20941 6.85 9.45003C7.275 9.66253 7.4625 9.70316 7.98438 9.70003C8.4625 9.70003 8.72813 9.65003 9.03125 9.51253C9.27813 9.40003 9.375 9.29691 9.375 9.15003C9.375 8.89691 9.17813 8.84066 8.84063 9.00003C8.25625 9.27191 7.66563 9.24691 7.05313 8.93128C6.55313 8.67191 6.15625 8.15628 6.06563 7.64378C6.01563 7.37503 6.025 6.91878 6.07813 6.70316C6.30625 5.83441 7.08438 5.25003 8.03125 5.24066C8.36563 5.23753 8.56875 5.28441 8.90625 5.44378C9.525 5.74066 9.975 6.45628 9.98125 7.16878C9.98438 7.65316 9.78125 7.96878 9.47188 7.96878H9.375V7.09691V6.22191L9.29375 6.15941C9.20313 6.08753 9.09375 6.07503 8.99688 6.12816C8.94688 6.15316 8.90625 6.14066 8.79063 6.06566C8.2375 5.69691 7.5125 5.75003 7.04688 6.19066C6.55313 6.65628 6.48438 7.46253 6.89375 8.05316C7.19063 8.48441 7.85938 8.70003 8.39375 8.53753C8.5125 8.50003 8.65 8.44378 8.69688 8.41253C8.78438 8.35316 8.7875 8.35316 8.9625 8.42503C9.2 8.52191 9.55 8.52816 9.79688 8.43441C10.025 8.35003 10.2844 8.10941 10.3969 7.88128C10.4813 7.70941 10.4844 7.68753 10.4844 7.20316C10.4844 6.63128 10.4406 6.43128 10.2094 5.98441C10.0531 5.68441 9.64688 5.25628 9.35938 5.08753C8.81875 4.77503 8.15 4.63753 7.59375 4.72191ZM8.25 6.39378C8.475 6.45941 8.71875 6.70003 8.79688 6.93441C8.8625 7.13128 8.85 7.40003 8.76563 7.56566C8.69063 7.71253 8.50938 7.90003 8.35938 7.97816C8.2625 8.03128 8.18125 8.04691 8 8.04691C7.72813 8.04691 7.58438 7.98441 7.40313 7.79066C7.21563 7.59691 7.17188 7.48441 7.17188 7.20316C7.17188 6.98753 7.18438 6.93441 7.25625 6.80628C7.41563 6.53753 7.70938 6.35316 7.9875 6.34691C8.04063 6.34378 8.15625 6.36566 8.25 6.39378Z" fill="#D1CCBB"/>
</svg>
