<svg width="16" height="17" viewBox="0 0 16 17" fill="none" xmlns="http://www.w3.org/2000/svg">
<path d="M2.99374 1.2779C2.78124 1.34665 2.39062 1.6029 2.05937 1.88415C1.34999 2.4904 0.881242 3.33415 0.749992 4.24665C0.690617 4.64353 0.724992 5.2904 0.824992 5.6654C1.12812 6.80915 1.85312 8.11853 2.93124 9.46228C3.76874 10.5092 5.59687 12.3623 6.75937 13.3435C8.11249 14.4842 9.58124 15.331 10.7844 15.6592C11.2469 15.7842 11.9156 15.8185 12.3594 15.7373C13.45 15.5373 14.3281 14.9373 14.9906 13.9435C15.225 13.5904 15.2906 13.381 15.275 12.9998C15.2625 12.6654 15.1781 12.4404 14.9844 12.1998C14.9156 12.1154 14.4406 11.7685 13.6344 11.2154C12.1937 10.2248 12.1469 10.1998 11.6687 10.2248C11.1906 10.2498 10.9625 10.3904 10.4687 10.9654L10.2969 11.1654L10.1125 11.1123C9.68124 10.9873 8.99062 10.5717 8.32812 10.0435C7.88437 9.6904 6.80937 8.6154 6.45624 8.17165C5.92812 7.50915 5.51249 6.81853 5.38749 6.38728L5.33437 6.2029L5.53437 6.03103C6.10937 5.53728 6.24999 5.30915 6.27499 4.83103C6.29999 4.3529 6.27499 4.30603 5.28437 2.8654C4.73124 2.05915 4.38437 1.58415 4.29999 1.5154C4.05312 1.3154 3.83749 1.23728 3.48437 1.2279C3.24374 1.22165 3.13124 1.23103 2.99374 1.2779ZM3.75937 1.81228C3.83437 1.84978 3.94062 1.92165 3.99374 1.9779C4.11874 2.10915 5.61874 4.29353 5.69062 4.4529C5.75624 4.59665 5.76562 4.8279 5.71249 5.00915C5.66562 5.15915 5.46874 5.38103 5.11249 5.67165C4.96874 5.7904 4.83124 5.9279 4.81249 5.97165C4.76562 6.08103 4.81874 6.39665 4.93749 6.72478C5.46249 8.16228 7.58124 10.4185 9.25624 11.3248C9.77187 11.606 10.375 11.7717 10.5406 11.681C10.5812 11.6592 10.7312 11.506 10.8687 11.3404C11.1719 10.9779 11.3344 10.8342 11.4969 10.7873C11.6719 10.7342 11.9031 10.7435 12.0469 10.8092C12.2625 10.9092 14.4156 12.4029 14.55 12.5435C14.775 12.7873 14.8187 13.1435 14.6562 13.4498C14.425 13.8904 13.8625 14.4904 13.425 14.7623C12.7562 15.181 11.9281 15.3404 11.1844 15.1998C9.93124 14.9623 8.27499 13.981 6.57187 12.4592C6.11249 12.0529 4.96249 10.9185 4.39062 10.3123C2.73437 8.55603 1.61874 6.77165 1.31249 5.38415C1.14687 4.6404 1.30312 3.78103 1.71874 3.09978C1.99999 2.64353 2.59687 2.08103 3.04999 1.84353C3.27187 1.72478 3.54999 1.7154 3.75937 1.81228Z" fill="#D1CCBB"/>
<path d="M7.84687 1.86854C7.73749 1.97479 7.72812 2.05292 7.79687 2.18729C7.85312 2.29667 7.85624 2.29667 8.44062 2.34042C9.01562 2.38417 9.43437 2.46542 9.96874 2.64354C10.6531 2.87167 11.3437 3.24354 11.875 3.67792C12.1187 3.87479 12.6 4.35292 12.7969 4.59354C13.5875 5.55917 14.0656 6.77167 14.1594 8.05292C14.2031 8.64354 14.2031 8.64667 14.3125 8.70292C14.4469 8.77167 14.525 8.76229 14.6312 8.65292L14.7281 8.55917L14.7062 8.19354C14.6469 7.18729 14.4469 6.39979 14.0312 5.54667C13.3687 4.18104 12.3156 3.12792 10.9531 2.46854C10.1 2.05292 9.31249 1.85292 8.30624 1.79354L7.94062 1.77167L7.84687 1.86854Z" fill="#D1CCBB"/>
<path d="M7.95312 3.36854C7.80312 3.39979 7.71874 3.57167 7.77812 3.72792C7.82499 3.84667 7.89062 3.86854 8.32187 3.90292C9.02499 3.96229 9.52499 4.10292 10.125 4.40917C10.5906 4.64979 10.9437 4.91542 11.3281 5.31854C12.0906 6.11229 12.5094 7.05292 12.5937 8.17479C12.6094 8.39042 12.6375 8.59354 12.6562 8.62792C12.7312 8.76229 12.9687 8.77792 13.0812 8.64979C13.1875 8.53729 13.1375 7.83417 12.9812 7.20604C12.7594 6.31542 12.3125 5.53417 11.6406 4.85917C10.7156 3.93417 9.55624 3.42479 8.24999 3.36542C8.12187 3.36229 7.98749 3.36229 7.95312 3.36854Z" fill="#D1CCBB"/>
<path d="M7.9156 5.06222C7.8031 5.1091 7.7406 5.2341 7.76248 5.3591C7.7906 5.5091 7.87498 5.55285 8.17185 5.57785C8.91248 5.64035 9.53748 5.91535 10.0406 6.40285C10.55 6.89347 10.8594 7.56535 10.9219 8.32785C10.9344 8.46535 10.9625 8.6091 10.9875 8.6466C11.0812 8.79348 11.35 8.7591 11.4312 8.5841C11.4656 8.51535 11.4656 8.43098 11.4375 8.15598C11.325 7.00598 10.6656 6.00597 9.66248 5.4591C9.36873 5.29972 8.9406 5.14972 8.6406 5.09972C8.34685 5.04972 7.9906 5.03097 7.9156 5.06222Z" fill="#D1CCBB"/>
</svg>
