<svg width="24" height="25" viewBox="0 0 24 25" fill="none" xmlns="http://www.w3.org/2000/svg">
<path d="M0.210937 0.559793C0.05625 0.648863 0 0.757727 0 0.970503C0 1.11895 0.028125 1.20307 0.103125 1.28225C0.20625 1.38121 0.2625 1.38616 1.71094 1.401C2.98594 1.4208 3.24375 1.43564 3.42187 1.50492C3.90469 1.70285 4.29375 2.14325 4.42969 2.65293C4.46719 2.78653 4.94063 5.87427 5.48438 9.50632C6.02812 13.1384 6.49688 16.1915 6.525 16.2855C6.76406 17.102 7.40156 17.7749 8.17969 18.0323L8.50781 18.1411H14.8406C21.1125 18.1411 21.1781 18.1411 21.2812 18.0421C21.3375 17.9877 21.4031 17.8887 21.4266 17.8244C21.4875 17.6661 21.3984 17.3939 21.2672 17.3098C21.1875 17.2653 19.7531 17.2455 14.8125 17.2257L8.46094 17.2009L8.20312 17.0574C7.86562 16.8743 7.52812 16.4933 7.41094 16.1667C7.34531 15.9738 6.98437 13.8559 6.98437 13.6481C6.98437 13.6283 9.86719 13.6085 13.3969 13.6035L19.8047 13.5887L20.1516 13.4551C20.7328 13.2324 21.2016 12.8316 21.4922 12.3071C21.6656 11.9953 24 4.88461 24 4.66688C24 4.4739 23.9391 4.3403 23.8266 4.28092C23.7797 4.25618 19.65 4.22649 14.6531 4.21164L5.55937 4.1869L5.45156 3.46939C5.39531 3.07353 5.325 2.64303 5.29688 2.50943C5.10938 1.59399 4.32187 0.77257 3.43594 0.574638C3.0375 0.485569 0.360937 0.470724 0.210937 0.559793ZM22.9688 5.14192C22.9688 5.22604 19.1837 9.93366 19.0899 10.1217C18.5 10 17.9936 10.412 17.6842 10.5654L17.0526 10.9074L16.4211 11.0394L13.0721 11.1279L10.7368 10.5654L8.8421 9.78509C8.8046 9.6119 5.71875 5.25573 5.71875 5.17161C5.71875 5.11223 6.31579 11.1965 14.5263 11.1965C21.6541 11.1965 22.9688 5.11718 22.9688 5.14192Z" fill="#260000"/>
<path d="M8.84535 19.7253C7.71566 20.0518 6.97503 21.2541 7.16722 22.4564C7.3641 23.6686 8.28753 24.4998 9.44066 24.4998C10.1063 24.4998 10.6266 24.2771 11.0907 23.7873C12.3328 22.4762 11.7516 20.1953 10.0547 19.7253C9.72191 19.6362 9.15472 19.6362 8.84535 19.7253ZM9.47371 20.6629C9.47371 21.2939 9.47371 21.5658 9.47371 22.1645C9.4784 22.4663 8.84213 23.1869 8.84213 23.1869C8.17182 24.5723 9.55809 23.4785 9.47371 21.9249C9.45028 21.4846 9.83342 21.6155 10.1053 21.2939C10.56 20.7596 8.89715 20.3512 9.47371 20.6629Z" fill="#260000"/>
<path d="M17.3014 19.7301C16.9171 19.839 16.5983 20.0369 16.2796 20.3733C15.0468 21.6844 15.5952 23.8861 17.2921 24.4205C17.653 24.5343 18.2436 24.5244 18.6233 24.4007C18.9843 24.282 19.4296 23.9801 19.6686 23.6932C19.9077 23.4013 20.1421 22.857 20.203 22.4513C20.3811 21.2392 19.6452 20.0319 18.5343 19.7301C18.178 19.6312 17.6389 19.6312 17.3014 19.7301ZM18.0421 20.9506C18.0421 21.5477 18.0421 21.792 18.0421 22.1666C18.0421 22.818 17.25 23.4026 17.25 23.75C17.25 24.0974 18.5389 23.5497 18.0421 23.5942C16.9733 23.6981 18.0421 23.7192 18.0421 21.9249C18.0421 21.2939 18.0421 21.0436 18.0421 20.5543C18.0421 20.2394 18.0421 20.4783 18.0421 20.9506Z" fill="#260000"/>
</svg>
