<svg aria-hidden="true" style="position: absolute; width: 0; height: 0; overflow: hidden;" version="1.1" xmlns="http://www.w3.org/2000/svg" xmlns:xlink="http://www.w3.org/1999/xlink">
<defs>
<symbol id="icon-arrow" viewBox="0 0 427 32">
<path d="M0 16l26.667 15.396v-30.792l-26.667 15.396zM426.667 13.333h-402.667v5.333h402.667v-5.333z"></path>
</symbol>
<symbol id="icon-catalogue-basket" viewBox="0 0 32 32">
<path d="M0.281 0.887c-0.206 0.113-0.281 0.25-0.281 0.519 0 0.188 0.037 0.294 0.138 0.394 0.138 0.125 0.212 0.131 2.144 0.15 1.7 0.025 2.044 0.044 2.281 0.131 0.644 0.25 1.162 0.806 1.344 1.45 0.050 0.169 0.681 4.069 1.406 8.656s1.35 8.444 1.387 8.563c0.319 1.031 1.169 1.881 2.206 2.206l0.438 0.138h8.444c8.363 0 8.45 0 8.588-0.125 0.075-0.069 0.163-0.194 0.194-0.275 0.081-0.2-0.038-0.544-0.212-0.65-0.106-0.056-2.019-0.081-8.606-0.106l-8.469-0.031-0.344-0.181c-0.45-0.231-0.9-0.712-1.056-1.125-0.088-0.244-0.569-2.919-0.569-3.181 0-0.025 3.844-0.050 8.55-0.056l8.544-0.019 0.462-0.169c0.775-0.281 1.4-0.788 1.788-1.45 0.231-0.394 3.344-9.375 3.344-9.65 0-0.244-0.081-0.412-0.231-0.487-0.063-0.031-5.569-0.069-12.231-0.088l-12.125-0.031-0.144-0.906c-0.075-0.5-0.169-1.044-0.206-1.212-0.25-1.156-1.3-2.194-2.481-2.444-0.531-0.113-4.1-0.131-4.3-0.019zM30.625 6.675c0 0.106-2.806 8.137-2.931 8.375-0.194 0.375-0.587 0.75-1 0.944l-0.35 0.162-17.219 0.031-0.031-0.137c-0.050-0.219-1.469-9.231-1.469-9.338 0-0.075 1.6-0.088 11.5-0.088 6.325 0 11.5 0.019 11.5 0.050z"></path>
<path d="M11.794 25.094c-1.506 0.412-2.494 1.931-2.237 3.45 0.262 1.531 1.494 2.581 3.031 2.581 0.887 0 1.581-0.281 2.2-0.9 1.656-1.656 0.881-4.537-1.381-5.131-0.444-0.113-1.2-0.113-1.613 0zM13.431 26.344c0.688 0.344 1.081 0.969 1.081 1.725 0.006 0.381-0.025 0.494-0.206 0.856-0.894 1.75-3.494 1.212-3.606-0.75-0.031-0.556 0.106-0.956 0.469-1.363 0.606-0.675 1.494-0.863 2.263-0.469z"></path>
<path d="M23.069 25.1c-0.512 0.137-0.938 0.387-1.363 0.813-1.644 1.656-0.913 4.438 1.35 5.113 0.481 0.144 1.269 0.131 1.775-0.025 0.481-0.15 1.075-0.531 1.394-0.894 0.319-0.369 0.631-1.056 0.712-1.569 0.238-1.531-0.744-3.056-2.225-3.438-0.475-0.125-1.194-0.125-1.644 0zM24.675 26.313c0.425 0.181 0.9 0.7 1.044 1.131 0.144 0.425 0.106 1.050-0.081 1.438-0.294 0.606-0.919 1.044-1.581 1.1-1.425 0.131-2.512-1.381-1.919-2.675 0.25-0.55 0.756-0.975 1.331-1.125 0.3-0.081 0.856-0.019 1.206 0.131z"></path>
</symbol>
<symbol id="icon-choose-delivery-icon" viewBox="0 0 32 32">
<path d="M21.675 0.45c-0.75 0.45-1.675 2.125-1.675 3 0 0.5-0.125 0.55-1.325 0.55-4.35 0-9.15 3.025-11.1 7-1 2.025-1.3 3.4-1.325 5.675v1.8l-6.125 0.15-0.075 1.425c-0.075 1.325-0.025 1.45 0.45 1.45 0.4 0 0.5-0.15 0.5-0.875v-0.875h2.975l0.075 2.425 0.075 2.45h5.25l0.075-2.45 0.075-2.425h2.725v11.25h-11.25v-4c0-3.85-0.025-4-0.5-4-0.5 0-0.5 0.125-0.45 4.425l0.075 4.45h13.25l0.075-1.6c0.075-1.35 0.125-1.55 0.5-1.45 4.125 1.3 7.725 1.225 10.725-0.225 0.625-0.325 0.95-0.65 0.95-0.975 0-0.6-0.2-0.575-2.5 0.225-2 0.7-4.325 1-4.875 0.675-0.275-0.2-0.1-0.5 0.925-1.6 1.075-1.125 1.3-1.55 1.45-2.575 0.275-2.075 0.375-2.475 0.9-3.35l0.525-0.85 0.325 0.775c0.425 1.025 0.75 1.175 3.85 1.8 1.45 0.3 2.65 0.575 2.7 0.625 0.050 0.025-0.375 0.6-0.95 1.25-1 1.125-1.15 1.9-0.375 1.9 0.5 0 2.325-2.125 3.025-3.5 0.975-1.925 1.375-3.7 1.375-6.15 0-3.85-1.375-7.075-4.1-9.55-1.125-1.025-1.175-1.125-0.925-1.85 0.675-1.9 0.1-4.1-1.275-4.95-1.050-0.625-3.050-0.65-4.025-0.050zM24.45 1.275c1.8 0.625 2.025 2.85 0.575 5.725-1.225 2.425-1.35 2.5-2.075 1.2-0.85-1.45-1.7-3.8-1.7-4.675 0-0.8 0.8-1.975 1.6-2.275 0.7-0.3 0.7-0.3 1.6 0.025zM20.275 5.475c0.075 0.075 0.35 0.65 0.575 1.275 0.5 1.275 1.825 3.525 2.25 3.8 0.675 0.45 1.2 0.15 2.1-1.3 0.5-0.8 1.050-1.475 1.2-1.5 0.3 0 1.45 1.2 2.45 2.55l0.675 0.9-1.2 0.4c-0.65 0.2-1.65 0.45-2.2 0.55-1.7 0.3-2.725 0.825-3.325 1.75-0.325 0.475-0.7 0.85-0.875 0.775-0.175-0.050-0.35-0.775-0.425-1.7-0.1-1.15-0.275-1.825-0.675-2.325-0.3-0.375-0.625-1.1-0.725-1.625-0.2-1.125-0.75-2.025-1.225-2.025s-1.375-0.9-1.375-1.35c0-0.55 2.275-0.7 2.775-0.175zM16.5 6.025c0 0.825 0.475 1.5 1.4 1.875 0.7 0.3 0.875 0.525 1 1.375 0.1 0.55 0.45 1.425 0.8 1.925 0.425 0.625 0.625 1.25 0.6 1.925-0.050 3.075 1.875 4.15 3.325 1.85 0.35-0.55 0.9-1.1 1.2-1.2 1.2-0.475 5.025-1.275 5.175-1.1 0.3 0.325 0.725 1.85 0.9 3.2 0.15 1.375-0.175 3.65-0.8 5.275l-0.4 1.025-1.525-0.3c-0.85-0.175-2.2-0.45-3-0.625-1.4-0.275-1.475-0.35-1.925-1.4-0.375-0.85-0.6-1.1-1.075-1.1-1.125 0-2.35 2.15-2.65 4.65-0.175 1.5-0.275 1.725-1.325 2.725-0.65 0.6-1.225 1.325-1.325 1.625-0.2 0.625-0.6 0.625-2.15-0.025l-1.225-0.525v-4.050c0-2.825-0.1-4.15-0.3-4.35-0.175-0.175-1.050-0.3-2.225-0.3-2.575 0-2.65-0.275-0.825-2.675 1.025-1.35 1.125-2.8 0.325-4.575-0.275-0.625-0.45-1.35-0.35-1.675 0.175-0.75 2.35-2.45 4.25-3.35 1.775-0.85 2.125-0.9 2.125-0.2zM9.6 12.375c0.425 1.275 0.3 1.85-0.675 3.025-0.85 1.025-1.175 1.7-1.2 2.525l-0.025 0.7-0.225-0.75c-0.3-0.975 0.125-3.8 0.825-5.4 0.275-0.675 0.6-1.225 0.7-1.225 0.125 0 0.375 0.5 0.6 1.125zM8.25 21.75v2h-3v-4h3v2z"></path>
<path  d="M22.425 2.45c-0.95 1.050-0.15 2.8 1.275 2.8 0.4 0 0.9-0.2 1.125-0.45 0.525-0.575 0.55-1.9 0.025-2.4-0.525-0.55-1.925-0.5-2.425 0.050zM24.1 3.775c-0.2 0.35-0.85 0.275-0.85-0.1 0-0.2 0.075-0.425 0.175-0.5 0.225-0.225 0.85 0.325 0.675 0.6z"></path>
<path  d="M17.8 2.050c0.050 0.325 0.25 0.575 0.45 0.575s0.4-0.25 0.45-0.575c0.075-0.425-0.050-0.55-0.45-0.55s-0.525 0.125-0.45 0.55z"></path>
<path  d="M15.875 2c-0.225 0.375 0.1 0.75 0.65 0.75 0.3 0 0.475-0.175 0.475-0.5 0-0.525-0.825-0.725-1.125-0.25z"></path>
<path  d="M14 2.75c0 0.4 0.125 0.525 0.575 0.45 0.3-0.050 0.55-0.25 0.55-0.45s-0.25-0.4-0.55-0.45c-0.45-0.075-0.575 0.050-0.575 0.45z"></path>
<path  d="M12.35 3.125c-0.1 0.225-0.050 0.525 0.1 0.675 0.375 0.375 1.1 0.025 1-0.475-0.1-0.575-0.9-0.725-1.1-0.2z"></path>
<path  d="M10.6 4.025c-0.2 0.35 0.525 1.075 0.875 0.875 0.475-0.3 0.325-1.15-0.2-1.15-0.275 0-0.575 0.125-0.675 0.275z"></path>
<path  d="M9.15 5.15c-0.1 0.25-0.050 0.55 0.075 0.675 0.35 0.35 1.075 0 0.975-0.5-0.1-0.6-0.85-0.7-1.050-0.175z"></path>
<path  d="M7.925 6.175c-0.375 0.35-0.175 1.075 0.3 1.075 0.65 0 0.9-0.425 0.525-0.875-0.35-0.4-0.575-0.475-0.825-0.2z"></path>
<path  d="M6.6 7.875c-0.1 0.225-0.050 0.525 0.1 0.675 0.375 0.375 1.1 0.025 1-0.475-0.1-0.575-0.9-0.725-1.1-0.2z"></path>
<path  d="M5.75 9.25c-0.45 0.275-0.1 1.050 0.425 0.95 0.25-0.050 0.475-0.25 0.525-0.475 0.1-0.475-0.475-0.775-0.95-0.475z"></path>
<path  d="M4.85 11.125c-0.175 0.45 0.075 0.875 0.525 0.875 0.375 0 0.6-0.475 0.45-0.95-0.15-0.425-0.8-0.375-0.975 0.075z"></path>
<path  d="M4.425 12.65c-0.4 0.4-0.175 1.1 0.35 1.1 0.375 0 0.5-0.125 0.425-0.55-0.075-0.55-0.475-0.825-0.775-0.55z"></path>
<path  d="M3.925 14.65c-0.4 0.4-0.15 0.85 0.475 0.85 0.475 0 0.625-0.125 0.55-0.425-0.075-0.475-0.725-0.725-1.025-0.425z"></path>
<path  d="M3.85 16.6c-0.175 0.475 0.075 0.9 0.55 0.9 0.25 0 0.35-0.2 0.3-0.55-0.1-0.65-0.65-0.9-0.85-0.35z"></path>
</symbol>
<symbol id="icon-choose-icons-trust" viewBox="0 0 32 32">
<path d="M7.388 0.344l-0.5 0.338-0.55-0.050c-0.306-0.025-0.619-0.025-0.7 0-0.1 0.037-0.225 0.225-0.406 0.612l-0.262 0.563-0.513 0.231c-0.731 0.325-0.725 0.325-0.675 1.1l0.038 0.644-0.344 0.494c-0.194 0.275-0.35 0.544-0.35 0.606s0.156 0.344 0.35 0.625l0.35 0.513-0.044 0.637c-0.050 0.756-0.069 0.725 0.662 1.069l0.519 0.244 0.269 0.575c0.2 0.431 0.306 0.587 0.406 0.612 0.081 0.019 0.4 0.013 0.706-0.012l0.562-0.050 0.425 0.3c0.494 0.344 0.688 0.431 0.838 0.375 0.062-0.025 0.306-0.181 0.544-0.35l0.438-0.313 0.612 0.044c0.369 0.025 0.663 0.012 0.731-0.025 0.062-0.031 0.231-0.306 0.375-0.613l0.262-0.55 0.575-0.281 0.575-0.275v-1.437l0.331-0.463c0.181-0.256 0.325-0.531 0.325-0.619 0-0.081-0.15-0.369-0.344-0.644l-0.344-0.487 0.038-0.556c0.062-0.819 0.062-0.819-0.606-1.137l-0.569-0.269-0.25-0.55c-0.3-0.656-0.35-0.681-1.131-0.606l-0.544 0.050-0.494-0.344c-0.275-0.194-0.563-0.344-0.65-0.344-0.081 0-0.375 0.156-0.656 0.344zM8.506 1.225l0.4 0.288 1.131-0.087 0.225 0.494 0.225 0.487 0.506 0.25 0.506 0.244-0.038 0.569-0.037 0.563 0.287 0.4c0.156 0.225 0.288 0.425 0.288 0.45 0 0.031-0.131 0.238-0.288 0.463l-0.294 0.419 0.037 0.556 0.044 0.562-0.488 0.231-0.481 0.231-0.25 0.512c-0.206 0.419-0.275 0.506-0.375 0.488-0.069-0.013-0.312-0.038-0.537-0.063l-0.413-0.031-0.456 0.306-0.456 0.313-0.394-0.269c-0.212-0.15-0.438-0.294-0.506-0.313-0.063-0.019-0.331-0.012-0.6 0.013l-0.494 0.050-0.231-0.506-0.238-0.506-0.506-0.231c-0.494-0.225-0.506-0.231-0.481-0.431 0.106-0.856 0.112-0.825-0.225-1.331l-0.313-0.469 0.3-0.419c0.294-0.412 0.3-0.431 0.281-0.831-0.006-0.225-0.031-0.481-0.044-0.569-0.038-0.15 0-0.175 0.469-0.388l0.506-0.231 0.462-1 1.125 0.075 0.406-0.281c0.225-0.156 0.438-0.287 0.475-0.287 0.031-0.006 0.244 0.125 0.469 0.281z"></path>
<path d="M7.588 1.75c-2.563 0.375-3.619 3.5-1.806 5.35 0.756 0.775 1.863 1.113 2.919 0.894 1.112-0.231 2.131-1.2 2.425-2.294 0.113-0.437 0.087-1.3-0.056-1.769-0.456-1.469-1.95-2.406-3.481-2.181zM8.444 2.563c0.706 0.138 1.325 0.594 1.687 1.263 0.206 0.375 0.213 0.419 0.213 1.050 0 0.588-0.019 0.694-0.169 1.006-0.237 0.475-0.681 0.913-1.175 1.144-0.362 0.169-0.469 0.194-0.969 0.194-0.475 0-0.619-0.025-0.919-0.169-0.5-0.231-0.95-0.669-1.194-1.169-0.181-0.375-0.2-0.456-0.2-1.006 0.006-0.525 0.025-0.637 0.187-0.969 0.319-0.656 0.913-1.144 1.625-1.319 0.4-0.1 0.506-0.1 0.913-0.025z"></path>
<path d="M8.438 4.406l-0.963 0.963-0.419-0.4c-0.231-0.225-0.469-0.406-0.537-0.406-0.225 0-0.394 0.181-0.394 0.419 0 0.194 0.063 0.281 0.575 0.775 0.469 0.45 0.612 0.556 0.769 0.556 0.169 0 0.35-0.162 1.369-1.181 1.094-1.1 1.175-1.2 1.137-1.362-0.056-0.212-0.2-0.331-0.413-0.331-0.119 0-0.375 0.219-1.125 0.969z"></path>
<path d="M23.344 1.294c-0.569 0.094-0.981 0.194-1.044 0.25-0.069 0.056-0.112 0.188-0.112 0.306 0 0.3 0.206 0.425 0.606 0.369 0.3-0.044 0.3-0.044 0.175 0.081-0.181 0.175-17.625 15-19.719 16.75-0.925 0.775-1 0.856-1 1.050s0.206 0.4 0.406 0.4c0.2 0-0.050 0.212 14.719-12.344 6.906-5.869 6.288-5.35 6.225-5.188-0.031 0.069-0.062 0.244-0.081 0.381-0.031 0.219-0.013 0.275 0.112 0.362 0.213 0.144 0.406 0.125 0.55-0.063 0.069-0.087 0.275-0.606 0.456-1.156 0.312-0.944 0.325-1.006 0.237-1.169-0.131-0.225-0.35-0.231-1.531-0.031z"></path>
<path d="M22.338 4.944c-0.113 0.125-0.119 0.269-0.138 2.219l-0.019 2.088h-2.056c-1.981 0-2.069 0.006-2.187 0.125s-0.125 0.206-0.125 2.75v2.625h-2.119c-2.125 0-2.125 0-2.219 0.138-0.081 0.112-0.1 0.331-0.1 1.062v0.925h-2.050c-1.75 0-2.069 0.013-2.187 0.1-0.138 0.094-0.138 0.094-0.138 2.187v2.088h-2.094c-2.012 0-2.1 0.006-2.219 0.125s-0.125 0.206-0.125 3.344v3.219h-2.031c-1.95 0-2.038 0.006-2.156 0.125s-0.125 0.206-0.125 1.894c0 1.5 0.013 1.788 0.1 1.906l0.094 0.138h31.113l0.094-0.138c0.088-0.119 0.1-0.406 0.1-1.906 0-1.687-0.006-1.775-0.125-1.894s-0.206-0.125-2.156-0.125h-2.031v-11.438c0-11.356 0-11.438-0.125-11.562-0.119-0.119-0.206-0.125-2.487-0.125-2.325 0-2.369 0-2.487 0.131zM26.625 16.781v11.156h-3.625v-22.313h3.625v11.156zM22.188 19v8.938h-3.563v-17.875h3.563v8.938zM17.812 21.75v6.188h-3.625v-12.375h3.625v6.188zM13.375 22.812v5.125h-3.563v-10.25h3.563v5.125zM9 25v2.938h-3.625v-5.875h3.625v2.938zM30.938 29.969v1.219h-29.875v-2.438h29.875v1.219z"></path>
</symbol>
<symbol id="icon-choose-selection-icon" viewBox="0 0 32 32">
<path d="M11.95 1.525c-0.4 0.225-0.45 0.7-0.45 4.225 0 4.725 0.025 4.75 2.775 4.75h1.675l0.3 3.175c0.15 1.775 0.25 3.55 0.2 4l-0.075 0.8-1.25-0.775c-1.825-1.175-3.875-1-3.875 0.275 0 0.25 1.4 2.050 3.125 4 1.725 1.975 3.125 3.7 3.125 3.875 0 0.15-0.175 0.475-0.35 0.7-0.275 0.375-0.275 0.775-0.025 2.2 0.175 0.975 0.375 1.825 0.45 1.925 0.175 0.15 8.775-1.175 9.2-1.45 0.2-0.1 0.175-0.75-0.050-2.1-0.225-1.525-0.4-1.975-0.775-2.075-0.575-0.15-0.575-0.85 0.050-2.675 0.325-0.925 0.5-2.1 0.5-3.225 0-1.775-0.575-5.9-0.875-6.4-0.075-0.125-0.6-0.25-1.125-0.25s-1.050-0.125-1.125-0.25c-0.075-0.15-0.6-0.25-1.125-0.25s-1.050-0.125-1.125-0.25c-0.075-0.15-0.525-0.25-1-0.25-0.525 0-0.875-0.15-0.975-0.4-0.2-0.55-0.225-0.525 0.475-0.7 0.925-0.225 1.125-1.050 1.125-4.725 0-4.65 0.225-4.425-4.575-4.425-2.125 0-4 0.125-4.225 0.275zM19.325 2.325c0.375 0.275 0.425 0.725 0.375 3.675-0.075 2.975-0.125 3.375-0.5 3.45-0.325 0.075-0.45-0.075-0.45-0.5 0-0.825-0.45-1.2-1.4-1.2-0.925 0-1.6 0.55-1.6 1.275 0 0.425-0.175 0.475-1.6 0.475-1.225 0-1.625-0.1-1.75-0.4-0.075-0.225-0.15-1.775-0.15-3.475 0-2.7 0.050-3.125 0.45-3.35 0.65-0.375 6.1-0.35 6.625 0.050zM18.4 12.3c0.325 1.825 0.6 3.35 0.6 3.375 0 0.050 0.175 0.075 0.4 0.075 0.35 0 0.375-0.225 0.25-1.6-0.15-1.3-0.125-1.6 0.2-1.725 0.5-0.2 0.675 0.125 1 1.925 0.2 1.075 0.4 1.525 0.65 1.525 0.3 0 0.375-0.325 0.375-1.5 0-1.125 0.1-1.5 0.35-1.5 0.375 0 0.625 0.625 0.9 2.175 0.1 0.625 0.275 0.95 0.55 0.95 0.325 0 0.375-0.225 0.275-1.25-0.1-0.925-0.025-1.25 0.225-1.375 0.625-0.225 0.75 0.050 1.1 2.175 0.425 2.8 0.375 5.075-0.15 6.45-0.25 0.625-0.5 1.575-0.6 2.125l-0.15 0.975-2.5 0.45c-3.325 0.55-3.225 0.575-3.675-0.375-0.225-0.425-1.6-2.175-3.050-3.85-1.475-1.675-2.7-3.15-2.7-3.25-0.075-0.525 0.95-0.275 2.3 0.55 0.825 0.5 1.7 0.875 1.95 0.825 0.625-0.125 0.75-2.8 0.35-7.050-0.3-2.9-0.3-3.5-0.025-3.675 0.2-0.1 0.45-0.1 0.575 0.025 0.1 0.1 0.475 1.7 0.8 3.55zM25.8 27.225c0.1 0.625 0.15 1.15 0.1 1.2-0.075 0.1-7.050 1.325-7.45 1.325-0.15 0-0.4-1.025-0.525-2.25-0.050-0.275 0.7-0.475 3.075-0.9 1.725-0.3 3.45-0.525 3.875-0.525 0.675 0.050 0.75 0.15 0.925 1.15z"></path>
<path d="M16.875 4.75l-1.225 1.25-0.65-0.625c-0.7-0.675-1.25-0.8-1.25-0.3 0 0.375 1.525 1.925 1.9 1.925 0.425 0 3.175-2.95 3-3.225-0.275-0.45-0.475-0.35-1.775 0.975z"></path>
<path  d="M22.825 3.9c-0.45 0.2-0.45 5.875-0.025 6.3 0.45 0.45 5.55 0.4 5.925-0.050 0.2-0.225 0.275-1.35 0.225-3.3l-0.075-2.975-2.875-0.050c-1.575-0.025-3.025 0.025-3.175 0.075zM28.2 7.050l0.075 2.45h-5.025v-2.325c0-1.3 0.075-2.425 0.175-2.525s1.2-0.125 2.45-0.1l2.25 0.075 0.075 2.425z"></path>
<path  d="M24.95 6.025c-0.525 0.3-0.6 1.475-0.15 1.925 0.375 0.375 1.525 0.375 1.9 0 0.475-0.475 0.375-1.65-0.175-1.95-0.6-0.3-1.025-0.3-1.575 0.025zM26 7.125c0 0.2-0.1 0.375-0.25 0.375-0.125 0-0.25-0.175-0.25-0.375s0.125-0.375 0.25-0.375c0.15 0 0.25 0.175 0.25 0.375z"></path>
<path  d="M3.55 7.3c-0.425 0.425-0.425 5.725 0 6.15 0.2 0.2 1.25 0.3 3.125 0.3 3.4 0 3.325 0.075 3.325-3.475 0-3.275 0-3.275-3.475-3.275-1.75 0-2.775 0.1-2.975 0.3zM9 10.375v2.4l-4.875-0.15-0.075-1.975c-0.050-1.1-0.025-2.125 0.050-2.325 0.1-0.225 0.75-0.325 2.525-0.325h2.375v2.375z"></path>
<path  d="M5.8 9.4c-1.25 0.85-0.050 2.775 1.325 2.15 0.5-0.225 0.625-0.475 0.625-1.175 0-0.725-0.125-0.925-0.65-1.125-0.775-0.3-0.625-0.325-1.3 0.15zM6.775 10.575c-0.325 0.325-0.65 0.075-0.4-0.3 0.075-0.15 0.275-0.2 0.425-0.125 0.15 0.1 0.15 0.25-0.025 0.425z"></path>
</symbol>
<symbol id="icon-header-icon-backet" viewBox="0 0 31 32">
<path d="M0.27 0.717c-0.198 0.114-0.27 0.253-0.27 0.526 0 0.19 0.036 0.298 0.132 0.399 0.132 0.127 0.204 0.133 2.058 0.152 1.632 0.025 1.962 0.044 2.19 0.133 0.618 0.253 1.116 0.817 1.29 1.469 0.048 0.171 0.654 4.123 1.35 8.772s1.296 8.557 1.332 8.677c0.306 1.045 1.122 1.906 2.118 2.236l0.42 0.139h8.106c8.028 0 8.112 0 8.244-0.127 0.072-0.070 0.156-0.196 0.186-0.279 0.078-0.203-0.036-0.551-0.204-0.659-0.102-0.057-1.938-0.082-8.262-0.108l-8.13-0.032-0.33-0.184c-0.432-0.234-0.864-0.722-1.014-1.14-0.084-0.247-0.546-2.958-0.546-3.224 0-0.025 3.69-0.051 8.208-0.057l8.202-0.019 0.444-0.171c0.744-0.285 1.344-0.798 1.716-1.469 0.222-0.399 3.21-9.501 3.21-9.779 0-0.247-0.078-0.418-0.222-0.494-0.060-0.032-5.346-0.070-11.742-0.089l-11.64-0.032-0.138-0.918c-0.072-0.507-0.162-1.058-0.198-1.229-0.24-1.172-1.248-2.223-2.382-2.477-0.51-0.114-3.936-0.133-4.128-0.019zM29.4 6.582c0 0.108-4.845 6.133-4.965 6.374-0.755-0.156-1.403 0.372-1.799 0.568l-0.808 0.438-0.808 0.169-4.287 0.113-2.989-0.72-2.425-0.999c-0.048-0.222-3.998-5.798-3.998-5.905 0-0.076 0.764 7.712 11.274 7.712 9.124 0 10.806-7.782 10.806-7.75z"></path>
<path d="M11.322 25.248c-1.446 0.418-2.394 1.957-2.148 3.496 0.252 1.552 1.434 2.616 2.91 2.616 0.852 0 1.518-0.285 2.112-0.912 1.59-1.678 0.846-4.598-1.326-5.199-0.426-0.114-1.152-0.114-1.548 0zM12.126 26.448c0 0.808 0 1.156 0 1.922 0.006 0.386-0.808 1.309-0.808 1.309-0.858 1.773 0.916 0.373 0.808-1.615-0.030-0.564 0.46-0.396 0.808-0.808 0.582-0.684-1.546-1.207-0.808-0.808z"></path>
<path d="M22.146 25.255c-0.492 0.139-0.9 0.393-1.308 0.823-1.578 1.678-0.876 4.496 1.296 5.18 0.462 0.146 1.218 0.133 1.704-0.025 0.462-0.152 1.032-0.538 1.338-0.906 0.306-0.374 0.606-1.070 0.684-1.59 0.228-1.552-0.714-3.097-2.136-3.483-0.456-0.127-1.146-0.127-1.578 0zM23.094 26.817c0 0.764 0 1.077 0 1.556 0 0.834-1.014 1.582-1.014 2.027s1.65-0.256 1.014-0.199c-1.368 0.133 0 0.16 0-2.137 0-0.808 0-1.128 0-1.754 0-0.403 0-0.097 0 0.507z"></path>
</symbol>
<symbol id="icon-header-icon-profile" viewBox="0 0 31 32">
<path d="M30.72 31.36v-3.413c0-1.811-0.809-3.547-2.249-4.827s-3.394-2-5.431-2h-15.36c-2.037 0-3.99 0.719-5.431 2s-2.249 3.017-2.249 4.827v3.413z"></path>
<path d="M15.36 16c3.535 0 6.4-2.865 6.4-6.4s-2.865-6.4-6.4-6.4c-3.535 0-6.4 2.865-6.4 6.4s2.865 6.4 6.4 6.4z"></path>
</symbol>
<symbol id="icon-footer-number-icon" viewBox="0 0 30 32">
<path fill="#d1ccbb" style="fill: var(--color1, #d1ccbb)" d="M5.635 2.405c-0.4 0.129-1.135 0.612-1.759 1.141-1.335 1.141-2.218 2.729-2.465 4.447-0.112 0.747-0.047 1.965 0.141 2.671 0.571 2.153 1.935 4.618 3.965 7.147 1.576 1.971 5.018 5.459 7.206 7.306 2.547 2.147 5.312 3.741 7.577 4.359 0.871 0.235 2.129 0.3 2.965 0.147 2.053-0.376 3.706-1.506 4.953-3.377 0.441-0.665 0.565-1.059 0.535-1.776-0.024-0.629-0.182-1.053-0.547-1.506-0.13-0.159-1.024-0.812-2.541-1.853-2.712-1.865-2.8-1.912-3.7-1.865s-1.329 0.312-2.259 1.394l-0.323 0.376-0.347-0.1c-0.812-0.235-2.112-1.018-3.359-2.012-0.835-0.665-2.859-2.688-3.524-3.523-0.994-1.247-1.776-2.547-2.012-3.359l-0.1-0.347 0.376-0.324c1.082-0.929 1.347-1.359 1.394-2.259s0-0.988-1.865-3.7c-1.041-1.518-1.694-2.412-1.853-2.541-0.465-0.376-0.871-0.524-1.535-0.541-0.453-0.012-0.665 0.006-0.924 0.094zM7.076 3.411c0.141 0.071 0.341 0.206 0.441 0.312 0.235 0.247 3.059 4.359 3.194 4.659 0.124 0.271 0.141 0.706 0.041 1.047-0.088 0.282-0.459 0.7-1.129 1.247-0.271 0.224-0.529 0.482-0.565 0.565-0.088 0.206 0.012 0.8 0.235 1.418 0.988 2.706 4.976 6.953 8.129 8.659 0.971 0.529 2.106 0.841 2.418 0.671 0.076-0.041 0.359-0.329 0.618-0.641 0.571-0.682 0.877-0.953 1.183-1.041 0.329-0.1 0.765-0.082 1.035 0.041 0.406 0.188 4.459 3 4.712 3.265 0.424 0.459 0.506 1.129 0.2 1.706-0.435 0.829-1.494 1.959-2.318 2.471-1.259 0.788-2.818 1.088-4.218 0.824-2.359-0.447-5.477-2.294-8.682-5.159-0.865-0.765-3.029-2.9-4.106-4.041-3.118-3.306-5.218-6.665-5.794-9.277-0.312-1.4-0.018-3.018 0.765-4.3 0.529-0.859 1.653-1.918 2.506-2.365 0.418-0.224 0.941-0.241 1.335-0.059z"></path>
<path fill="#d1ccbb" style="fill: var(--color1, #d1ccbb)" d="M14.771 3.517c-0.206 0.2-0.224 0.347-0.094 0.6 0.106 0.206 0.112 0.206 1.212 0.288 1.082 0.082 1.871 0.235 2.876 0.571 1.288 0.429 2.588 1.129 3.588 1.947 0.459 0.371 1.365 1.271 1.735 1.724 1.488 1.818 2.388 4.1 2.565 6.512 0.082 1.112 0.082 1.118 0.288 1.224 0.253 0.129 0.4 0.112 0.6-0.094l0.182-0.176-0.041-0.688c-0.112-1.894-0.488-3.376-1.271-4.982-1.247-2.571-3.229-4.553-5.794-5.794-1.606-0.782-3.088-1.159-4.982-1.271l-0.688-0.041-0.176 0.182z"></path>
<path fill="#d1ccbb" style="fill: var(--color1, #d1ccbb)" d="M14.971 6.341c-0.282 0.059-0.441 0.382-0.329 0.676 0.088 0.224 0.212 0.265 1.024 0.329 1.324 0.112 2.265 0.376 3.394 0.953 0.876 0.453 1.541 0.953 2.265 1.712 1.435 1.494 2.224 3.265 2.382 5.376 0.030 0.406 0.082 0.788 0.118 0.853 0.141 0.253 0.588 0.282 0.8 0.041 0.2-0.212 0.106-1.535-0.188-2.718-0.418-1.676-1.259-3.147-2.523-4.418-1.741-1.741-3.924-2.7-6.382-2.812-0.241-0.006-0.494-0.006-0.559 0.006z"></path>
<path fill="#d1ccbb" style="fill: var(--color1, #d1ccbb)" d="M14.9 9.529c-0.212 0.088-0.329 0.324-0.288 0.559 0.053 0.282 0.212 0.365 0.771 0.412 1.394 0.118 2.571 0.635 3.518 1.553 0.959 0.924 1.541 2.188 1.659 3.624 0.024 0.259 0.076 0.529 0.123 0.6 0.176 0.276 0.682 0.212 0.835-0.118 0.065-0.129 0.065-0.288 0.012-0.806-0.212-2.165-1.453-4.047-3.341-5.076-0.553-0.3-1.359-0.582-1.924-0.676-0.553-0.094-1.224-0.129-1.365-0.071z"></path>
</symbol>
<symbol id="icon-footer-instagram-icon" viewBox="0 0 30 32">
<path fill="#d1ccbb" style="fill: var(--color1, #d1ccbb)" d="M6.588 3.506c-1.624 0.518-2.847 1.529-3.671 3.082-0.424 0.753-0.447 1.482-0.447 9.412 0 8.353 0.024 8.612 0.518 9.529 0.588 1.106 1.506 2 2.659 2.612 0.753 0.424 1.482 0.447 9.412 0.447s8.659-0.024 9.412-0.447c1.153-0.612 2.071-1.506 2.659-2.612 0.494-0.918 0.518-1.176 0.518-9.529s-0.024-8.612-0.518-9.529c-0.588-1.106-1.506-2-2.659-2.612-0.753-0.4-1.529-0.447-9.059-0.494-4.518-0.024-8.494 0.047-8.824 0.141zM23.176 4.8c1.482 0.471 2.635 1.6 3.059 3.059 0.518 1.694 0.518 14.588 0 16.282-0.424 1.459-1.576 2.588-3.059 3.059-1.647 0.471-14.588 0.471-16.235 0-1.482-0.471-2.635-1.6-3.059-3.059-0.518-1.694-0.518-14.588 0-16.282 0.424-1.435 1.553-2.588 2.965-3.035 1.529-0.471 14.753-0.494 16.329-0.024z"></path>
<path fill="#d1ccbb" style="fill: var(--color1, #d1ccbb)" d="M22.047 6.306c-0.235 0.259-0.4 0.824-0.4 1.412 0 1.129 0.588 1.694 1.765 1.694 1.506 0 2.353-2 1.294-3.059-0.612-0.612-2.118-0.635-2.659-0.047zM23.835 7.388c0.188 0.471-0.471 1.012-0.824 0.659-0.329-0.329-0.071-0.988 0.376-0.988 0.165 0 0.376 0.141 0.447 0.329z"></path>
<path fill="#d1ccbb" style="fill: var(--color1, #d1ccbb)" d="M13.059 7.976c-2.353 0.635-4.424 2.329-5.459 4.471-0.565 1.153-0.635 1.6-0.659 3.553 0 1.976 0.071 2.376 0.659 3.529 0.871 1.694 2.259 3.082 3.882 3.906 1.2 0.588 1.6 0.659 3.576 0.659s2.376-0.071 3.576-0.659c1.624-0.824 3.012-2.212 3.882-3.906 0.588-1.153 0.659-1.553 0.659-3.529-0.024-1.953-0.094-2.4-0.659-3.553-0.776-1.6-2.565-3.341-4.094-4-1.224-0.541-4.188-0.8-5.365-0.471zM17.812 9.647c4.494 1.976 5.576 7.694 2.141 11.224-4.306 4.4-11.812 1.294-11.812-4.871-0.024-4.988 5.106-8.376 9.671-6.353z"></path>
<path fill="#d1ccbb" style="fill: var(--color1, #d1ccbb)" d="M13.059 11.742c-2.353 1.082-3.365 3.882-2.259 6.259 1.671 3.6 6.847 3.6 8.518 0 0.824-1.765 0.376-4.212-0.988-5.459s-3.576-1.576-5.271-0.8zM16.165 12.73c1.576 0.588 2.612 2.329 2.306 3.882-0.188 1.059-1.341 2.353-2.376 2.682-2.353 0.776-4.918-1.459-4.471-3.882 0.282-1.459 1.929-2.918 3.365-2.941 0.282 0 0.8 0.118 1.176 0.259z"></path>
</symbol>
<symbol id="icon-footer-facebook-icon" viewBox="0 0 30 32">
<path fill="#d1ccbb" style="fill: var(--color1, #d1ccbb)" d="M1.6 1.082c-0.688 0.259-1.247 0.829-1.476 1.518l-0.124 0.365v26.071l0.124 0.365c0.235 0.706 0.829 1.3 1.535 1.535l0.365 0.123h26.071l0.365-0.123c0.706-0.235 1.3-0.83 1.535-1.535l0.123-0.365v-26.071l-0.123-0.365c-0.235-0.706-0.829-1.3-1.535-1.535l-0.365-0.124-26.124 0.006-0.371 0.135zM28.206 2.112c0.306 0.135 0.606 0.435 0.741 0.741 0.106 0.224 0.112 0.771 0.112 13.147s-0.006 12.923-0.112 13.147c-0.135 0.306-0.435 0.606-0.741 0.741-0.218 0.1-0.488 0.112-4.159 0.112h-3.929v-8.941h5v-6.118h-5v-1.312c0.006-1.406 0.012-1.453 0.318-1.571 0.1-0.035 1.083-0.059 2.688-0.059h2.523v-6.059h-2.906c-2.394 0-2.988 0.018-3.388 0.094-2.418 0.459-4.441 2.347-5.088 4.741-0.182 0.682-0.265 1.576-0.265 3.029v1.135h-4v6.118h4v8.941h-5.924c-5.618 0-5.941-0.006-6.165-0.112-0.306-0.135-0.606-0.435-0.741-0.741-0.106-0.224-0.112-0.771-0.112-13.147s0.006-12.924 0.112-13.147c0.135-0.306 0.435-0.606 0.741-0.741 0.224-0.106 0.771-0.112 13.147-0.112s12.923 0.006 13.147 0.112zM24.588 8.971v1.965l-4.382 0.035-0.335 0.165c-0.182 0.088-0.4 0.253-0.482 0.365-0.312 0.406-0.329 0.535-0.329 2.594v1.906h5v4h-5v10h-4v-10h-4v-4h3.988l0.029-2.076c0.035-2.147 0.065-2.488 0.324-3.218 0.629-1.8 2.224-3.224 4.041-3.606 0.324-0.071 0.918-0.094 2.782-0.094l2.365-0.006v1.971z"></path>
</symbol>
<symbol id="icon-footer-gmail-icon" viewBox="0 0 30 32">
<path fill="#d1ccbb" style="fill: var(--color1, #d1ccbb)" d="M14.335 2.947c-0.412 0.094-0.835 0.359-1.988 1.229l-1.153 0.876-2.465 0.018c-2.729 0.018-2.712 0.018-3.135 0.418-0.4 0.382-0.418 0.459-0.418 2.394v1.735l-1.594 1.2c-0.876 0.665-1.624 1.259-1.659 1.324-0.088 0.159-0.118 5.547-0.059 10.976l0.047 3.912 0.218 0.459c0.382 0.8 1.112 1.394 1.929 1.565 0.241 0.053 3.024 0.065 11.206 0.053l10.882-0.017 0.453-0.218c0.753-0.359 1.259-0.923 1.512-1.676 0.123-0.365 0.123-0.429 0.123-7.718v-7.359l-0.282-0.218c-0.153-0.124-0.894-0.688-1.647-1.253l-1.365-1.029v-1.735c0-1.935-0.018-2.012-0.418-2.394-0.424-0.4-0.406-0.4-3.135-0.418l-2.465-0.018-1.153-0.871c-1.206-0.912-1.488-1.088-1.976-1.218-0.329-0.088-1.118-0.1-1.459-0.018zM15.694 3.988c0.153 0.059 0.571 0.324 0.924 0.588l0.635 0.482h-4.388l0.635-0.482c0.353-0.265 0.759-0.524 0.912-0.582 0.353-0.141 0.924-0.141 1.282-0.006zM23.676 6.118c0.324 0.124 0.324 0.106 0.324 4.512v4.047l-3.859 3c-2.435 1.894-3.988 3.065-4.218 3.177-0.318 0.153-0.429 0.176-0.871 0.176-0.465 0-0.535-0.018-0.9-0.206-0.224-0.118-2.035-1.482-4.212-3.176l-3.824-2.971v-4.047c0-4.365 0-4.388 0.306-4.512 0.188-0.076 17.053-0.076 17.253 0zM26.688 12.206l0.241 0.182-1.988 1.553v-3.053l0.753 0.565c0.412 0.312 0.859 0.653 0.994 0.753zM5.176 12.441v1.5l-1.988-1.553 0.947-0.718c0.524-0.4 0.971-0.724 1-0.724 0.024-0.006 0.041 0.671 0.041 1.494zM7.753 17.23l4.718 3.665-0.224 0.159c-1.447 1.047-8.965 6.3-9.006 6.3-0.106 0-0.294-0.441-0.359-0.829-0.035-0.241-0.059-2.647-0.059-6.747 0-6.141 0.006-6.371 0.106-6.294 0.059 0.041 2.229 1.729 4.824 3.747zM27.235 26.488c-0.065 0.412-0.247 0.865-0.359 0.865-0.041 0-8.935-6.212-9.218-6.441-0.006-0.006 2.153-1.694 4.794-3.753l4.812-3.735 0.017 6.329c0.012 4.182-0.006 6.471-0.047 6.735zM14.359 21.971c0.706 0.165 1.459 0.071 2.112-0.259l0.324-0.165 4.606 3.241c3.541 2.488 4.582 3.247 4.5 3.276-0.135 0.059-21.541 0.059-21.682 0.006-0.076-0.035 1-0.824 4.5-3.282l4.606-3.241 0.324 0.165c0.182 0.094 0.5 0.206 0.712 0.259z"></path>
<path fill="#d1ccbb" style="fill: var(--color1, #d1ccbb)" d="M14.294 8.888c-1.529 0.235-2.859 1.241-3.535 2.671-0.329 0.706-0.424 1.235-0.388 2.135 0.029 0.835 0.124 1.247 0.429 1.888 0.459 0.982 1.2 1.753 2.094 2.206 0.8 0.4 1.153 0.476 2.135 0.471 0.9 0 1.4-0.094 1.971-0.353 0.465-0.212 0.647-0.406 0.647-0.682 0-0.476-0.371-0.582-1.006-0.282-1.1 0.512-2.212 0.465-3.365-0.129-0.941-0.488-1.688-1.459-1.859-2.424-0.094-0.506-0.076-1.365 0.024-1.771 0.429-1.635 1.894-2.735 3.676-2.753 0.629-0.006 1.012 0.082 1.647 0.382 1.165 0.559 2.012 1.906 2.024 3.247 0.006 0.912-0.376 1.506-0.959 1.506h-0.182v-3.288l-0.153-0.118c-0.171-0.135-0.376-0.159-0.559-0.059-0.094 0.047-0.171 0.024-0.388-0.118-1.041-0.694-2.406-0.594-3.282 0.235-0.929 0.876-1.059 2.394-0.288 3.506 0.559 0.812 1.818 1.218 2.824 0.912 0.224-0.071 0.482-0.176 0.571-0.235 0.165-0.112 0.171-0.112 0.5 0.024 0.447 0.182 1.106 0.194 1.571 0.018 0.429-0.159 0.918-0.612 1.129-1.041 0.159-0.324 0.165-0.365 0.165-1.276 0-1.076-0.082-1.453-0.518-2.294-0.294-0.565-1.059-1.371-1.6-1.688-1.018-0.588-2.276-0.847-3.324-0.688zM15.529 12.035c0.424 0.124 0.882 0.576 1.029 1.018 0.124 0.371 0.1 0.876-0.059 1.188-0.141 0.276-0.482 0.629-0.765 0.776-0.182 0.1-0.335 0.129-0.676 0.129-0.512 0-0.782-0.118-1.124-0.482-0.353-0.365-0.435-0.576-0.435-1.106 0-0.406 0.024-0.506 0.159-0.747 0.3-0.506 0.853-0.853 1.376-0.865 0.1-0.006 0.318 0.035 0.494 0.088z"></path>
</symbol>
</defs>
</svg>
