<svg aria-hidden="true" style="position: absolute; width: 0; height: 0; overflow: hidden;" version="1.1" xmlns="http://www.w3.org/2000/svg" xmlns:xlink="http://www.w3.org/1999/xlink">
<defs>
<symbol id="icon-arrow" viewBox="0 0 427 32">
<path d="M0 16l26.667 15.396v-30.792l-26.667 15.396zM426.667 13.333h-402.667v5.333h402.667v-5.333z"></path>
</symbol>
<symbol id="icon-catalogue-basket" viewBox="0 0 32 32">
<path d="M0.281 0.887c-0.206 0.113-0.281 0.25-0.281 0.519 0 0.188 0.037 0.294 0.138 0.394 0.138 0.125 0.212 0.131 2.144 0.15 1.7 0.025 2.044 0.044 2.281 0.131 0.644 0.25 1.162 0.806 1.344 1.45 0.050 0.169 0.681 4.069 1.406 8.656s1.35 8.444 1.387 8.563c0.319 1.031 1.169 1.881 2.206 2.206l0.438 0.138h8.444c8.363 0 8.45 0 8.588-0.125 0.075-0.069 0.163-0.194 0.194-0.275 0.081-0.2-0.038-0.544-0.212-0.65-0.106-0.056-2.019-0.081-8.606-0.106l-8.469-0.031-0.344-0.181c-0.45-0.231-0.9-0.712-1.056-1.125-0.088-0.244-0.569-2.919-0.569-3.181 0-0.025 3.844-0.050 8.55-0.056l8.544-0.019 0.462-0.169c0.775-0.281 1.4-0.788 1.788-1.45 0.231-0.394 3.344-9.375 3.344-9.65 0-0.244-0.081-0.412-0.231-0.487-0.063-0.031-5.569-0.069-12.231-0.088l-12.125-0.031-0.144-0.906c-0.075-0.5-0.169-1.044-0.206-1.212-0.25-1.156-1.3-2.194-2.481-2.444-0.531-0.113-4.1-0.131-4.3-0.019zM30.625 6.675c0 0.106-2.806 8.137-2.931 8.375-0.194 0.375-0.587 0.75-1 0.944l-0.35 0.162-17.219 0.031-0.031-0.137c-0.050-0.219-1.469-9.231-1.469-9.338 0-0.075 1.6-0.088 11.5-0.088 6.325 0 11.5 0.019 11.5 0.050z"></path>
<path d="M11.794 25.094c-1.506 0.412-2.494 1.931-2.237 3.45 0.262 1.531 1.494 2.581 3.031 2.581 0.887 0 1.581-0.281 2.2-0.9 1.656-1.656 0.881-4.537-1.381-5.131-0.444-0.113-1.2-0.113-1.613 0zM13.431 26.344c0.688 0.344 1.081 0.969 1.081 1.725 0.006 0.381-0.025 0.494-0.206 0.856-0.894 1.75-3.494 1.212-3.606-0.75-0.031-0.556 0.106-0.956 0.469-1.363 0.606-0.675 1.494-0.863 2.263-0.469z"></path>
<path d="M23.069 25.1c-0.512 0.137-0.938 0.387-1.363 0.813-1.644 1.656-0.913 4.438 1.35 5.113 0.481 0.144 1.269 0.131 1.775-0.025 0.481-0.15 1.075-0.531 1.394-0.894 0.319-0.369 0.631-1.056 0.712-1.569 0.238-1.531-0.744-3.056-2.225-3.438-0.475-0.125-1.194-0.125-1.644 0zM24.675 26.313c0.425 0.181 0.9 0.7 1.044 1.131 0.144 0.425 0.106 1.050-0.081 1.438-0.294 0.606-0.919 1.044-1.581 1.1-1.425 0.131-2.512-1.381-1.919-2.675 0.25-0.55 0.756-0.975 1.331-1.125 0.3-0.081 0.856-0.019 1.206 0.131z"></path>
</symbol>
<symbol id="icon-choose-delivery-icon" viewBox="0 0 32 32">
<path d="M21.675 0.45c-0.75 0.45-1.675 2.125-1.675 3 0 0.5-0.125 0.55-1.325 0.55-4.35 0-9.15 3.025-11.1 7-1 2.025-1.3 3.4-1.325 5.675v1.8l-6.125 0.15-0.075 1.425c-0.075 1.325-0.025 1.45 0.45 1.45 0.4 0 0.5-0.15 0.5-0.875v-0.875h2.975l0.075 2.425 0.075 2.45h5.25l0.075-2.45 0.075-2.425h2.725v11.25h-11.25v-4c0-3.85-0.025-4-0.5-4-0.5 0-0.5 0.125-0.45 4.425l0.075 4.45h13.25l0.075-1.6c0.075-1.35 0.125-1.55 0.5-1.45 4.125 1.3 7.725 1.225 10.725-0.225 0.625-0.325 0.95-0.65 0.95-0.975 0-0.6-0.2-0.575-2.5 0.225-2 0.7-4.325 1-4.875 0.675-0.275-0.2-0.1-0.5 0.925-1.6 1.075-1.125 1.3-1.55 1.45-2.575 0.275-2.075 0.375-2.475 0.9-3.35l0.525-0.85 0.325 0.775c0.425 1.025 0.75 1.175 3.85 1.8 1.45 0.3 2.65 0.575 2.7 0.625 0.050 0.025-0.375 0.6-0.95 1.25-1 1.125-1.15 1.9-0.375 1.9 0.5 0 2.325-2.125 3.025-3.5 0.975-1.925 1.375-3.7 1.375-6.15 0-3.85-1.375-7.075-4.1-9.55-1.125-1.025-1.175-1.125-0.925-1.85 0.675-1.9 0.1-4.1-1.275-4.95-1.050-0.625-3.050-0.65-4.025-0.050zM24.45 1.275c1.8 0.625 2.025 2.85 0.575 5.725-1.225 2.425-1.35 2.5-2.075 1.2-0.85-1.45-1.7-3.8-1.7-4.675 0-0.8 0.8-1.975 1.6-2.275 0.7-0.3 0.7-0.3 1.6 0.025zM20.275 5.475c0.075 0.075 0.35 0.65 0.575 1.275 0.5 1.275 1.825 3.525 2.25 3.8 0.675 0.45 1.2 0.15 2.1-1.3 0.5-0.8 1.050-1.475 1.2-1.5 0.3 0 1.45 1.2 2.45 2.55l0.675 0.9-1.2 0.4c-0.65 0.2-1.65 0.45-2.2 0.55-1.7 0.3-2.725 0.825-3.325 1.75-0.325 0.475-0.7 0.85-0.875 0.775-0.175-0.050-0.35-0.775-0.425-1.7-0.1-1.15-0.275-1.825-0.675-2.325-0.3-0.375-0.625-1.1-0.725-1.625-0.2-1.125-0.75-2.025-1.225-2.025s-1.375-0.9-1.375-1.35c0-0.55 2.275-0.7 2.775-0.175zM16.5 6.025c0 0.825 0.475 1.5 1.4 1.875 0.7 0.3 0.875 0.525 1 1.375 0.1 0.55 0.45 1.425 0.8 1.925 0.425 0.625 0.625 1.25 0.6 1.925-0.050 3.075 1.875 4.15 3.325 1.85 0.35-0.55 0.9-1.1 1.2-1.2 1.2-0.475 5.025-1.275 5.175-1.1 0.3 0.325 0.725 1.85 0.9 3.2 0.15 1.375-0.175 3.65-0.8 5.275l-0.4 1.025-1.525-0.3c-0.85-0.175-2.2-0.45-3-0.625-1.4-0.275-1.475-0.35-1.925-1.4-0.375-0.85-0.6-1.1-1.075-1.1-1.125 0-2.35 2.15-2.65 4.65-0.175 1.5-0.275 1.725-1.325 2.725-0.65 0.6-1.225 1.325-1.325 1.625-0.2 0.625-0.6 0.625-2.15-0.025l-1.225-0.525v-4.050c0-2.825-0.1-4.15-0.3-4.35-0.175-0.175-1.050-0.3-2.225-0.3-2.575 0-2.65-0.275-0.825-2.675 1.025-1.35 1.125-2.8 0.325-4.575-0.275-0.625-0.45-1.35-0.35-1.675 0.175-0.75 2.35-2.45 4.25-3.35 1.775-0.85 2.125-0.9 2.125-0.2zM9.6 12.375c0.425 1.275 0.3 1.85-0.675 3.025-0.85 1.025-1.175 1.7-1.2 2.525l-0.025 0.7-0.225-0.75c-0.3-0.975 0.125-3.8 0.825-5.4 0.275-0.675 0.6-1.225 0.7-1.225 0.125 0 0.375 0.5 0.6 1.125zM8.25 21.75v2h-3v-4h3v2z"></path>
<path  d="M22.425 2.45c-0.95 1.050-0.15 2.8 1.275 2.8 0.4 0 0.9-0.2 1.125-0.45 0.525-0.575 0.55-1.9 0.025-2.4-0.525-0.55-1.925-0.5-2.425 0.050zM24.1 3.775c-0.2 0.35-0.85 0.275-0.85-0.1 0-0.2 0.075-0.425 0.175-0.5 0.225-0.225 0.85 0.325 0.675 0.6z"></path>
<path  d="M17.8 2.050c0.050 0.325 0.25 0.575 0.45 0.575s0.4-0.25 0.45-0.575c0.075-0.425-0.050-0.55-0.45-0.55s-0.525 0.125-0.45 0.55z"></path>
<path  d="M15.875 2c-0.225 0.375 0.1 0.75 0.65 0.75 0.3 0 0.475-0.175 0.475-0.5 0-0.525-0.825-0.725-1.125-0.25z"></path>
<path  d="M14 2.75c0 0.4 0.125 0.525 0.575 0.45 0.3-0.050 0.55-0.25 0.55-0.45s-0.25-0.4-0.55-0.45c-0.45-0.075-0.575 0.050-0.575 0.45z"></path>
<path  d="M12.35 3.125c-0.1 0.225-0.050 0.525 0.1 0.675 0.375 0.375 1.1 0.025 1-0.475-0.1-0.575-0.9-0.725-1.1-0.2z"></path>
<path  d="M10.6 4.025c-0.2 0.35 0.525 1.075 0.875 0.875 0.475-0.3 0.325-1.15-0.2-1.15-0.275 0-0.575 0.125-0.675 0.275z"></path>
<path  d="M9.15 5.15c-0.1 0.25-0.050 0.55 0.075 0.675 0.35 0.35 1.075 0 0.975-0.5-0.1-0.6-0.85-0.7-1.050-0.175z"></path>
<path  d="M7.925 6.175c-0.375 0.35-0.175 1.075 0.3 1.075 0.65 0 0.9-0.425 0.525-0.875-0.35-0.4-0.575-0.475-0.825-0.2z"></path>
<path  d="M6.6 7.875c-0.1 0.225-0.050 0.525 0.1 0.675 0.375 0.375 1.1 0.025 1-0.475-0.1-0.575-0.9-0.725-1.1-0.2z"></path>
<path  d="M5.75 9.25c-0.45 0.275-0.1 1.050 0.425 0.95 0.25-0.050 0.475-0.25 0.525-0.475 0.1-0.475-0.475-0.775-0.95-0.475z"></path>
<path  d="M4.85 11.125c-0.175 0.45 0.075 0.875 0.525 0.875 0.375 0 0.6-0.475 0.45-0.95-0.15-0.425-0.8-0.375-0.975 0.075z"></path>
<path  d="M4.425 12.65c-0.4 0.4-0.175 1.1 0.35 1.1 0.375 0 0.5-0.125 0.425-0.55-0.075-0.55-0.475-0.825-0.775-0.55z"></path>
<path  d="M3.925 14.65c-0.4 0.4-0.15 0.85 0.475 0.85 0.475 0 0.625-0.125 0.55-0.425-0.075-0.475-0.725-0.725-1.025-0.425z"></path>
<path  d="M3.85 16.6c-0.175 0.475 0.075 0.9 0.55 0.9 0.25 0 0.35-0.2 0.3-0.55-0.1-0.65-0.65-0.9-0.85-0.35z"></path>
</symbol>
<symbol id="icon-choose-icons-trust" viewBox="0 0 32 32">
<path d="M7.388 0.344l-0.5 0.338-0.55-0.050c-0.306-0.025-0.619-0.025-0.7 0-0.1 0.037-0.225 0.225-0.406 0.612l-0.262 0.563-0.513 0.231c-0.731 0.325-0.725 0.325-0.675 1.1l0.038 0.644-0.344 0.494c-0.194 0.275-0.35 0.544-0.35 0.606s0.156 0.344 0.35 0.625l0.35 0.513-0.044 0.637c-0.050 0.756-0.069 0.725 0.662 1.069l0.519 0.244 0.269 0.575c0.2 0.431 0.306 0.587 0.406 0.612 0.081 0.019 0.4 0.013 0.706-0.012l0.562-0.050 0.425 0.3c0.494 0.344 0.688 0.431 0.838 0.375 0.062-0.025 0.306-0.181 0.544-0.35l0.438-0.313 0.612 0.044c0.369 0.025 0.663 0.012 0.731-0.025 0.062-0.031 0.231-0.306 0.375-0.613l0.262-0.55 0.575-0.281 0.575-0.275v-1.437l0.331-0.463c0.181-0.256 0.325-0.531 0.325-0.619 0-0.081-0.15-0.369-0.344-0.644l-0.344-0.487 0.038-0.556c0.062-0.819 0.062-0.819-0.606-1.137l-0.569-0.269-0.25-0.55c-0.3-0.656-0.35-0.681-1.131-0.606l-0.544 0.050-0.494-0.344c-0.275-0.194-0.563-0.344-0.65-0.344-0.081 0-0.375 0.156-0.656 0.344zM8.506 1.225l0.4 0.288 1.131-0.087 0.225 0.494 0.225 0.487 0.506 0.25 0.506 0.244-0.038 0.569-0.037 0.563 0.287 0.4c0.156 0.225 0.288 0.425 0.288 0.45 0 0.031-0.131 0.238-0.288 0.463l-0.294 0.419 0.037 0.556 0.044 0.562-0.488 0.231-0.481 0.231-0.25 0.512c-0.206 0.419-0.275 0.506-0.375 0.488-0.069-0.013-0.312-0.038-0.537-0.063l-0.413-0.031-0.456 0.306-0.456 0.313-0.394-0.269c-0.212-0.15-0.438-0.294-0.506-0.313-0.063-0.019-0.331-0.012-0.6 0.013l-0.494 0.050-0.231-0.506-0.238-0.506-0.506-0.231c-0.494-0.225-0.506-0.231-0.481-0.431 0.106-0.856 0.112-0.825-0.225-1.331l-0.313-0.469 0.3-0.419c0.294-0.412 0.3-0.431 0.281-0.831-0.006-0.225-0.031-0.481-0.044-0.569-0.038-0.15 0-0.175 0.469-0.388l0.506-0.231 0.462-1 1.125 0.075 0.406-0.281c0.225-0.156 0.438-0.287 0.475-0.287 0.031-0.006 0.244 0.125 0.469 0.281z"></path>
<path d="M7.588 1.75c-2.563 0.375-3.619 3.5-1.806 5.35 0.756 0.775 1.863 1.113 2.919 0.894 1.112-0.231 2.131-1.2 2.425-2.294 0.113-0.437 0.087-1.3-0.056-1.769-0.456-1.469-1.95-2.406-3.481-2.181zM8.444 2.563c0.706 0.138 1.325 0.594 1.687 1.263 0.206 0.375 0.213 0.419 0.213 1.050 0 0.588-0.019 0.694-0.169 1.006-0.237 0.475-0.681 0.913-1.175 1.144-0.362 0.169-0.469 0.194-0.969 0.194-0.475 0-0.619-0.025-0.919-0.169-0.5-0.231-0.95-0.669-1.194-1.169-0.181-0.375-0.2-0.456-0.2-1.006 0.006-0.525 0.025-0.637 0.187-0.969 0.319-0.656 0.913-1.144 1.625-1.319 0.4-0.1 0.506-0.1 0.913-0.025z"></path>
<path d="M8.438 4.406l-0.963 0.963-0.419-0.4c-0.231-0.225-0.469-0.406-0.537-0.406-0.225 0-0.394 0.181-0.394 0.419 0 0.194 0.063 0.281 0.575 0.775 0.469 0.45 0.612 0.556 0.769 0.556 0.169 0 0.35-0.162 1.369-1.181 1.094-1.1 1.175-1.2 1.137-1.362-0.056-0.212-0.2-0.331-0.413-0.331-0.119 0-0.375 0.219-1.125 0.969z"></path>
<path d="M23.344 1.294c-0.569 0.094-0.981 0.194-1.044 0.25-0.069 0.056-0.112 0.188-0.112 0.306 0 0.3 0.206 0.425 0.606 0.369 0.3-0.044 0.3-0.044 0.175 0.081-0.181 0.175-17.625 15-19.719 16.75-0.925 0.775-1 0.856-1 1.050s0.206 0.4 0.406 0.4c0.2 0-0.050 0.212 14.719-12.344 6.906-5.869 6.288-5.35 6.225-5.188-0.031 0.069-0.062 0.244-0.081 0.381-0.031 0.219-0.013 0.275 0.112 0.362 0.213 0.144 0.406 0.125 0.55-0.063 0.069-0.087 0.275-0.606 0.456-1.156 0.312-0.944 0.325-1.006 0.237-1.169-0.131-0.225-0.35-0.231-1.531-0.031z"></path>
<path d="M22.338 4.944c-0.113 0.125-0.119 0.269-0.138 2.219l-0.019 2.088h-2.056c-1.981 0-2.069 0.006-2.187 0.125s-0.125 0.206-0.125 2.75v2.625h-2.119c-2.125 0-2.125 0-2.219 0.138-0.081 0.112-0.1 0.331-0.1 1.062v0.925h-2.050c-1.75 0-2.069 0.013-2.187 0.1-0.138 0.094-0.138 0.094-0.138 2.187v2.088h-2.094c-2.012 0-2.1 0.006-2.219 0.125s-0.125 0.206-0.125 3.344v3.219h-2.031c-1.95 0-2.038 0.006-2.156 0.125s-0.125 0.206-0.125 1.894c0 1.5 0.013 1.788 0.1 1.906l0.094 0.138h31.113l0.094-0.138c0.088-0.119 0.1-0.406 0.1-1.906 0-1.687-0.006-1.775-0.125-1.894s-0.206-0.125-2.156-0.125h-2.031v-11.438c0-11.356 0-11.438-0.125-11.562-0.119-0.119-0.206-0.125-2.487-0.125-2.325 0-2.369 0-2.487 0.131zM26.625 16.781v11.156h-3.625v-22.313h3.625v11.156zM22.188 19v8.938h-3.563v-17.875h3.563v8.938zM17.812 21.75v6.188h-3.625v-12.375h3.625v6.188zM13.375 22.812v5.125h-3.563v-10.25h3.563v5.125zM9 25v2.938h-3.625v-5.875h3.625v2.938zM30.938 29.969v1.219h-29.875v-2.438h29.875v1.219z"></path>
</symbol>
<symbol id="icon-choose-selection-icon" viewBox="0 0 32 32">
<path d="M11.95 1.525c-0.4 0.225-0.45 0.7-0.45 4.225 0 4.725 0.025 4.75 2.775 4.75h1.675l0.3 3.175c0.15 1.775 0.25 3.55 0.2 4l-0.075 0.8-1.25-0.775c-1.825-1.175-3.875-1-3.875 0.275 0 0.25 1.4 2.050 3.125 4 1.725 1.975 3.125 3.7 3.125 3.875 0 0.15-0.175 0.475-0.35 0.7-0.275 0.375-0.275 0.775-0.025 2.2 0.175 0.975 0.375 1.825 0.45 1.925 0.175 0.15 8.775-1.175 9.2-1.45 0.2-0.1 0.175-0.75-0.050-2.1-0.225-1.525-0.4-1.975-0.775-2.075-0.575-0.15-0.575-0.85 0.050-2.675 0.325-0.925 0.5-2.1 0.5-3.225 0-1.775-0.575-5.9-0.875-6.4-0.075-0.125-0.6-0.25-1.125-0.25s-1.050-0.125-1.125-0.25c-0.075-0.15-0.6-0.25-1.125-0.25s-1.050-0.125-1.125-0.25c-0.075-0.15-0.525-0.25-1-0.25-0.525 0-0.875-0.15-0.975-0.4-0.2-0.55-0.225-0.525 0.475-0.7 0.925-0.225 1.125-1.050 1.125-4.725 0-4.65 0.225-4.425-4.575-4.425-2.125 0-4 0.125-4.225 0.275zM19.325 2.325c0.375 0.275 0.425 0.725 0.375 3.675-0.075 2.975-0.125 3.375-0.5 3.45-0.325 0.075-0.45-0.075-0.45-0.5 0-0.825-0.45-1.2-1.4-1.2-0.925 0-1.6 0.55-1.6 1.275 0 0.425-0.175 0.475-1.6 0.475-1.225 0-1.625-0.1-1.75-0.4-0.075-0.225-0.15-1.775-0.15-3.475 0-2.7 0.050-3.125 0.45-3.35 0.65-0.375 6.1-0.35 6.625 0.050zM18.4 12.3c0.325 1.825 0.6 3.35 0.6 3.375 0 0.050 0.175 0.075 0.4 0.075 0.35 0 0.375-0.225 0.25-1.6-0.15-1.3-0.125-1.6 0.2-1.725 0.5-0.2 0.675 0.125 1 1.925 0.2 1.075 0.4 1.525 0.65 1.525 0.3 0 0.375-0.325 0.375-1.5 0-1.125 0.1-1.5 0.35-1.5 0.375 0 0.625 0.625 0.9 2.175 0.1 0.625 0.275 0.95 0.55 0.95 0.325 0 0.375-0.225 0.275-1.25-0.1-0.925-0.025-1.25 0.225-1.375 0.625-0.225 0.75 0.050 1.1 2.175 0.425 2.8 0.375 5.075-0.15 6.45-0.25 0.625-0.5 1.575-0.6 2.125l-0.15 0.975-2.5 0.45c-3.325 0.55-3.225 0.575-3.675-0.375-0.225-0.425-1.6-2.175-3.050-3.85-1.475-1.675-2.7-3.15-2.7-3.25-0.075-0.525 0.95-0.275 2.3 0.55 0.825 0.5 1.7 0.875 1.95 0.825 0.625-0.125 0.75-2.8 0.35-7.050-0.3-2.9-0.3-3.5-0.025-3.675 0.2-0.1 0.45-0.1 0.575 0.025 0.1 0.1 0.475 1.7 0.8 3.55zM25.8 27.225c0.1 0.625 0.15 1.15 0.1 1.2-0.075 0.1-7.050 1.325-7.45 1.325-0.15 0-0.4-1.025-0.525-2.25-0.050-0.275 0.7-0.475 3.075-0.9 1.725-0.3 3.45-0.525 3.875-0.525 0.675 0.050 0.75 0.15 0.925 1.15z"></path>
<path d="M16.875 4.75l-1.225 1.25-0.65-0.625c-0.7-0.675-1.25-0.8-1.25-0.3 0 0.375 1.525 1.925 1.9 1.925 0.425 0 3.175-2.95 3-3.225-0.275-0.45-0.475-0.35-1.775 0.975z"></path>
<path  d="M22.825 3.9c-0.45 0.2-0.45 5.875-0.025 6.3 0.45 0.45 5.55 0.4 5.925-0.050 0.2-0.225 0.275-1.35 0.225-3.3l-0.075-2.975-2.875-0.050c-1.575-0.025-3.025 0.025-3.175 0.075zM28.2 7.050l0.075 2.45h-5.025v-2.325c0-1.3 0.075-2.425 0.175-2.525s1.2-0.125 2.45-0.1l2.25 0.075 0.075 2.425z"></path>
<path  d="M24.95 6.025c-0.525 0.3-0.6 1.475-0.15 1.925 0.375 0.375 1.525 0.375 1.9 0 0.475-0.475 0.375-1.65-0.175-1.95-0.6-0.3-1.025-0.3-1.575 0.025zM26 7.125c0 0.2-0.1 0.375-0.25 0.375-0.125 0-0.25-0.175-0.25-0.375s0.125-0.375 0.25-0.375c0.15 0 0.25 0.175 0.25 0.375z"></path>
<path  d="M3.55 7.3c-0.425 0.425-0.425 5.725 0 6.15 0.2 0.2 1.25 0.3 3.125 0.3 3.4 0 3.325 0.075 3.325-3.475 0-3.275 0-3.275-3.475-3.275-1.75 0-2.775 0.1-2.975 0.3zM9 10.375v2.4l-4.875-0.15-0.075-1.975c-0.050-1.1-0.025-2.125 0.050-2.325 0.1-0.225 0.75-0.325 2.525-0.325h2.375v2.375z"></path>
<path  d="M5.8 9.4c-1.25 0.85-0.050 2.775 1.325 2.15 0.5-0.225 0.625-0.475 0.625-1.175 0-0.725-0.125-0.925-0.65-1.125-0.775-0.3-0.625-0.325-1.3 0.15zM6.775 10.575c-0.325 0.325-0.65 0.075-0.4-0.3 0.075-0.15 0.275-0.2 0.425-0.125 0.15 0.1 0.15 0.25-0.025 0.425z"></path>
</symbol>
<symbol id="icon-header-icon-backet" viewBox="0 0 31 32">
<path d="M0.27 0.717c-0.198 0.114-0.27 0.253-0.27 0.526 0 0.19 0.036 0.298 0.132 0.399 0.132 0.127 0.204 0.133 2.058 0.152 1.632 0.025 1.962 0.044 2.19 0.133 0.618 0.253 1.116 0.817 1.29 1.469 0.048 0.171 0.654 4.123 1.35 8.772s1.296 8.557 1.332 8.677c0.306 1.045 1.122 1.906 2.118 2.236l0.42 0.139h8.106c8.028 0 8.112 0 8.244-0.127 0.072-0.070 0.156-0.196 0.186-0.279 0.078-0.203-0.036-0.551-0.204-0.659-0.102-0.057-1.938-0.082-8.262-0.108l-8.13-0.032-0.33-0.184c-0.432-0.234-0.864-0.722-1.014-1.14-0.084-0.247-0.546-2.958-0.546-3.224 0-0.025 3.69-0.051 8.208-0.057l8.202-0.019 0.444-0.171c0.744-0.285 1.344-0.798 1.716-1.469 0.222-0.399 3.21-9.501 3.21-9.779 0-0.247-0.078-0.418-0.222-0.494-0.060-0.032-5.346-0.070-11.742-0.089l-11.64-0.032-0.138-0.918c-0.072-0.507-0.162-1.058-0.198-1.229-0.24-1.172-1.248-2.223-2.382-2.477-0.51-0.114-3.936-0.133-4.128-0.019zM29.4 6.582c0 0.108-4.845 6.133-4.965 6.374-0.755-0.156-1.403 0.372-1.799 0.568l-0.808 0.438-0.808 0.169-4.287 0.113-2.989-0.72-2.425-0.999c-0.048-0.222-3.998-5.798-3.998-5.905 0-0.076 0.764 7.712 11.274 7.712 9.124 0 10.806-7.782 10.806-7.75z"></path>
<path d="M11.322 25.248c-1.446 0.418-2.394 1.957-2.148 3.496 0.252 1.552 1.434 2.616 2.91 2.616 0.852 0 1.518-0.285 2.112-0.912 1.59-1.678 0.846-4.598-1.326-5.199-0.426-0.114-1.152-0.114-1.548 0zM12.126 26.448c0 0.808 0 1.156 0 1.922 0.006 0.386-0.808 1.309-0.808 1.309-0.858 1.773 0.916 0.373 0.808-1.615-0.030-0.564 0.46-0.396 0.808-0.808 0.582-0.684-1.546-1.207-0.808-0.808z"></path>
<path d="M22.146 25.255c-0.492 0.139-0.9 0.393-1.308 0.823-1.578 1.678-0.876 4.496 1.296 5.18 0.462 0.146 1.218 0.133 1.704-0.025 0.462-0.152 1.032-0.538 1.338-0.906 0.306-0.374 0.606-1.070 0.684-1.59 0.228-1.552-0.714-3.097-2.136-3.483-0.456-0.127-1.146-0.127-1.578 0zM23.094 26.817c0 0.764 0 1.077 0 1.556 0 0.834-1.014 1.582-1.014 2.027s1.65-0.256 1.014-0.199c-1.368 0.133 0 0.16 0-2.137 0-0.808 0-1.128 0-1.754 0-0.403 0-0.097 0 0.507z"></path>
</symbol>
<symbol id="icon-header-icon-profile" viewBox="0 0 31 32">
<path d="M30.72 31.36v-3.413c0-1.811-0.809-3.547-2.249-4.827s-3.394-2-5.431-2h-15.36c-2.037 0-3.99 0.719-5.431 2s-2.249 3.017-2.249 4.827v3.413z"></path>
<path d="M15.36 16c3.535 0 6.4-2.865 6.4-6.4s-2.865-6.4-6.4-6.4c-3.535 0-6.4 2.865-6.4 6.4s2.865 6.4 6.4 6.4z"></path>
</symbol>
</defs>
</svg>
